STARTFONT 2.1
FONT -FontForge-Righteous-Book-R-Normal--24-240-72-72-P-130-ISO10646-1
SIZE 24 72 72
FONTBOUNDINGBOX 30 30 -4 -6
COMMENT "Generated by fontforge, http://fontforge.sourceforge.net"
COMMENT "Copyright (c) 2011 by Brian J. Bonislawsky DBA Astigmatic (AOETI) (astigma@astigmatic.com), with ReservedFont Name "Righteous""
STARTPROPERTIES 39
FOUNDRY "FontForge"
FAMILY_NAME "Righteous"
WEIGHT_NAME "Book"
SLANT "R"
SETWIDTH_NAME "Normal"
ADD_STYLE_NAME ""
PIXEL_SIZE 24
POINT_SIZE 240
RESOLUTION_X 72
RESOLUTION_Y 72
SPACING "P"
AVERAGE_WIDTH 130
CHARSET_REGISTRY "ISO10646"
CHARSET_ENCODING "1"
FONTNAME_REGISTRY ""
CHARSET_COLLECTIONS "ISO8859-2 ISO8859-9 ISO8859-4 ISO10646-1"
FONT_NAME "Righteous-Regular"
FACE_NAME "Righteous"
COPYRIGHT "Copyright (c) 2011 by Brian J. Bonislawsky DBA Astigmatic (AOETI) (astigma@astigmatic.com), with ReservedFont Name "Righteous""
FONT_VERSION "1.000"
FONT_ASCENT 19
FONT_DESCENT 5
UNDERLINE_POSITION -3
UNDERLINE_THICKNESS 1
X_HEIGHT 12
CAP_HEIGHT 16
RAW_ASCENT 799
RAW_DESCENT 200
NORM_SPACE 7
RELATIVE_WEIGHT 40
RELATIVE_SETWIDTH 50
SUPERSCRIPT_X 0
SUPERSCRIPT_Y 11
SUPERSCRIPT_SIZE 15
SUBSCRIPT_X 0
SUBSCRIPT_Y 3
SUBSCRIPT_SIZE 15
AVG_LOWERCASE_WIDTH 129
AVG_UPPERCASE_WIDTH 153
ENDPROPERTIES
CHARS 372
STARTCHAR space
ENCODING 32
SWIDTH 279 0
DWIDTH 7 0
BBX 1 1 0 0
BITMAP
00
ENDCHAR
STARTCHAR exclam
ENCODING 33
SWIDTH 274 0
DWIDTH 7 0
BBX 4 18 1 -1
BITMAP
F0
F0
F0
F0
70
70
70
70
70
70
70
70
70
00
70
F0
F0
60
ENDCHAR
STARTCHAR quotedbl
ENCODING 34
SWIDTH 409 0
DWIDTH 10 0
BBX 8 5 1 12
BITMAP
FF
EF
EE
E6
66
ENDCHAR
STARTCHAR numbersign
ENCODING 35
SWIDTH 561 0
DWIDTH 13 0
BBX 12 11 1 3
BITMAP
0CE0
1CC0
3FF0
7FE0
7FE0
3980
3B80
FFC0
FFC0
7700
7700
ENDCHAR
STARTCHAR dollar
ENCODING 36
SWIDTH 458 0
DWIDTH 11 0
BBX 9 17 1 0
BITMAP
0C00
0C00
0C00
1F00
7F00
FF00
E000
FE00
7F80
3F80
0380
FF80
FF00
0C00
0C00
0C00
0C00
ENDCHAR
STARTCHAR percent
ENCODING 37
SWIDTH 685 0
DWIDTH 16 0
BBX 15 17 1 0
BITMAP
7838
FC30
EC70
CE60
CEE0
CEC0
FDC0
7D80
0380
0778
07FC
0ECC
0CCE
1CCE
18CC
38FC
3078
ENDCHAR
STARTCHAR ampersand
ENCODING 38
SWIDTH 485 0
DWIDTH 12 0
BBX 9 17 1 0
BITMAP
0E00
0E00
1F80
7F80
7F80
E000
E000
7E00
7E00
7E00
E000
E000
7000
7F80
3F80
0E00
0E00
ENDCHAR
STARTCHAR quotesingle
ENCODING 39
SWIDTH 238 0
DWIDTH 6 0
BBX 4 5 1 12
BITMAP
F0
E0
E0
E0
60
ENDCHAR
STARTCHAR parenleft
ENCODING 40
SWIDTH 351 0
DWIDTH 8 0
BBX 7 21 1 -2
BITMAP
1E
3C
38
78
70
F0
F0
F0
E0
E0
E0
E0
E0
F0
F0
70
78
78
38
3C
1E
ENDCHAR
STARTCHAR parenright
ENCODING 41
SWIDTH 351 0
DWIDTH 8 0
BBX 7 21 1 -2
BITMAP
F0
70
78
38
3C
3C
1C
1C
1C
1E
1E
1E
1C
1C
1C
3C
38
78
78
F0
F0
ENDCHAR
STARTCHAR asterisk
ENCODING 42
SWIDTH 589 0
DWIDTH 14 0
BBX 12 13 1 7
BITMAP
0F00
0F00
4F00
6F60
FFF0
FFF0
3FC0
1F80
1FC0
3FE0
79E0
30C0
1000
ENDCHAR
STARTCHAR plus
ENCODING 43
SWIDTH 485 0
DWIDTH 12 0
BBX 10 10 1 4
BITMAP
1C00
1C00
1C00
1C00
FFC0
FFC0
FFC0
1C00
1C00
1C00
ENDCHAR
STARTCHAR comma
ENCODING 44
SWIDTH 264 0
DWIDTH 6 0
BBX 4 6 1 -3
BITMAP
70
F0
F0
70
30
20
ENDCHAR
STARTCHAR hyphen
ENCODING 45
SWIDTH 528 0
DWIDTH 13 0
BBX 10 3 1 7
BITMAP
FFC0
FFC0
FFC0
ENDCHAR
STARTCHAR period
ENCODING 46
SWIDTH 263 0
DWIDTH 6 0
BBX 4 4 1 -1
BITMAP
70
F0
F0
60
ENDCHAR
STARTCHAR slash
ENCODING 47
SWIDTH 490 0
DWIDTH 12 0
BBX 10 17 1 0
BITMAP
03C0
03C0
0380
0780
0700
0F00
0E00
0E00
1E00
1C00
3C00
3800
3800
7800
7000
F000
E000
ENDCHAR
STARTCHAR zero
ENCODING 48
SWIDTH 642 0
DWIDTH 15 0
BBX 13 17 1 0
BITMAP
0F80
3FE0
7FF0
78F0
7078
F038
E038
E038
E038
E038
E038
F038
F078
7878
7FF0
3FE0
1FC0
ENDCHAR
STARTCHAR one
ENCODING 49
SWIDTH 317 0
DWIDTH 8 0
BBX 5 17 1 0
BITMAP
F8
F8
F8
F8
38
38
38
38
38
38
38
38
38
38
38
38
38
ENDCHAR
STARTCHAR two
ENCODING 50
SWIDTH 570 0
DWIDTH 14 0
BBX 12 17 1 0
BITMAP
7F00
7FC0
7FE0
7FE0
00F0
00F0
00F0
1FE0
7FE0
7F80
F000
E000
E000
E000
FFE0
FFE0
FFE0
ENDCHAR
STARTCHAR three
ENCODING 51
SWIDTH 586 0
DWIDTH 14 0
BBX 12 17 1 0
BITMAP
FF00
FFC0
FFE0
FFF0
00F0
0070
00F0
3FE0
3FE0
3FE0
00F0
00F0
00F0
00F0
FFE0
FFC0
FF80
ENDCHAR
STARTCHAR four
ENCODING 52
SWIDTH 630 0
DWIDTH 15 0
BBX 13 17 1 0
BITMAP
7800
7800
78E0
70E0
70E0
70E0
70E0
70E0
F0E0
F0E0
FFF8
FFF8
FFF8
FFF8
00E0
00E0
00E0
ENDCHAR
STARTCHAR five
ENCODING 53
SWIDTH 585 0
DWIDTH 14 0
BBX 12 17 1 0
BITMAP
7FF0
7FF0
7FF0
7FF0
7000
7000
FE00
FFC0
FFE0
FFF0
00F0
0070
0070
00F0
FFE0
FFE0
FF80
ENDCHAR
STARTCHAR six
ENCODING 54
SWIDTH 615 0
DWIDTH 15 0
BBX 13 17 1 0
BITMAP
0F80
1E00
3C00
3C00
7800
7FC0
FFE0
FFF0
F078
F078
F038
F078
F078
F8F0
7FF0
3FE0
1FC0
ENDCHAR
STARTCHAR seven
ENCODING 55
SWIDTH 516 0
DWIDTH 12 0
BBX 11 17 1 0
BITMAP
FFE0
FFE0
FFE0
FFC0
03C0
03C0
0380
0780
0780
0700
0F00
0E00
0E00
1E00
1C00
1C00
3C00
ENDCHAR
STARTCHAR eight
ENCODING 56
SWIDTH 618 0
DWIDTH 15 0
BBX 13 17 1 0
BITMAP
1FC0
3FE0
7FF0
78F0
7070
7070
79F0
3FE0
3FE0
7DF0
F078
E038
E038
F078
F8F0
7FF0
1FC0
ENDCHAR
STARTCHAR nine
ENCODING 57
SWIDTH 616 0
DWIDTH 15 0
BBX 13 17 1 0
BITMAP
1F80
3FE0
7FF0
F8F0
F078
E078
E078
E078
F078
FDF8
7FF0
3FF0
06F0
01E0
03C0
03C0
0F80
ENDCHAR
STARTCHAR colon
ENCODING 58
SWIDTH 276 0
DWIDTH 7 0
BBX 4 11 1 -1
BITMAP
60
F0
F0
70
00
00
00
70
F0
F0
60
ENDCHAR
STARTCHAR semicolon
ENCODING 59
SWIDTH 276 0
DWIDTH 7 0
BBX 4 13 1 -3
BITMAP
60
F0
F0
70
00
00
00
70
F0
F0
70
30
20
ENDCHAR
STARTCHAR less
ENCODING 60
SWIDTH 478 0
DWIDTH 11 0
BBX 9 13 1 3
BITMAP
0300
0780
0F80
1F00
3E00
7C00
F800
F800
7C00
3E00
1F80
0780
0300
ENDCHAR
STARTCHAR equal
ENCODING 61
SWIDTH 539 0
DWIDTH 13 0
BBX 9 8 2 4
BITMAP
FF80
FF80
FF80
0000
FF80
FF80
FF80
FF80
ENDCHAR
STARTCHAR greater
ENCODING 62
SWIDTH 478 0
DWIDTH 11 0
BBX 9 14 1 2
BITMAP
3000
7000
7800
3C00
1E00
0F00
0780
0F80
1F00
3E00
7C00
F800
7000
2000
ENDCHAR
STARTCHAR question
ENCODING 63
SWIDTH 603 0
DWIDTH 14 0
BBX 13 18 1 -1
BITMAP
FF80
FFE0
FFF0
FFF0
0078
0078
0078
07F0
0FE0
1FC0
1E00
1C00
1C00
0000
1C00
1C00
1C00
1C00
ENDCHAR
STARTCHAR at
ENCODING 64
SWIDTH 629 0
DWIDTH 15 0
BBX 13 13 1 0
BITMAP
0F80
3FE0
7CF0
71F8
EFF8
CFD8
DDD8
CDD8
EFF8
67F8
7000
3F00
1F00
ENDCHAR
STARTCHAR A
ENCODING 65
SWIDTH 673 0
DWIDTH 16 0
BBX 14 17 1 0
BITMAP
0780
1FE0
3FF0
7FF8
7878
703C
F03C
F03C
F03C
F03C
FFFC
FFFC
FFFC
FFFC
F03C
F03C
F03C
ENDCHAR
STARTCHAR B
ENCODING 66
SWIDTH 666 0
DWIDTH 16 0
BBX 13 17 2 0
BITMAP
FF80
FFE0
FFF0
FFF8
E078
E038
E078
FFF0
FFE0
FFF0
E078
E038
E038
E078
FFF0
FFF0
FFC0
ENDCHAR
STARTCHAR C
ENCODING 67
SWIDTH 640 0
DWIDTH 15 0
BBX 14 17 1 0
BITMAP
07E0
1FF8
3FFC
7F78
7800
F000
E000
E000
E000
E000
E000
F000
7800
7C18
3FFC
1FFC
07F0
ENDCHAR
STARTCHAR D
ENCODING 68
SWIDTH 653 0
DWIDTH 16 0
BBX 13 17 2 0
BITMAP
FE00
FF80
FFC0
FFE0
E0F0
E070
E078
E038
E038
E038
E078
E078
E0F0
E7E0
FFE0
FF80
FE00
ENDCHAR
STARTCHAR E
ENCODING 69
SWIDTH 578 0
DWIDTH 14 0
BBX 11 17 2 0
BITMAP
FFE0
FFE0
FFE0
FFE0
E000
E000
E000
FF00
FF00
FF00
E000
E000
E000
E000
FFE0
FFE0
FFE0
ENDCHAR
STARTCHAR F
ENCODING 70
SWIDTH 562 0
DWIDTH 13 0
BBX 11 17 2 0
BITMAP
FFE0
FFE0
FFE0
FFE0
E000
E000
E000
FF00
FF00
FF00
E000
E000
E000
E000
E000
E000
E000
ENDCHAR
STARTCHAR G
ENCODING 71
SWIDTH 665 0
DWIDTH 16 0
BBX 14 17 1 0
BITMAP
07E0
1FF8
3FFC
7F78
7800
F000
E000
E000
E000
E01C
E01C
F01C
781C
7C1C
3FFC
1FFC
07F0
ENDCHAR
STARTCHAR H
ENCODING 72
SWIDTH 689 0
DWIDTH 17 0
BBX 13 17 2 0
BITMAP
E038
E038
E038
E038
E038
E038
E038
FFF8
FFF8
FFF8
E038
E038
E038
E038
E038
E038
E038
ENDCHAR
STARTCHAR I
ENCODING 73
SWIDTH 270 0
DWIDTH 6 0
BBX 3 17 2 0
BITMAP
E0
E0
E0
E0
E0
E0
E0
E0
E0
E0
E0
E0
E0
E0
E0
E0
E0
ENDCHAR
STARTCHAR J
ENCODING 74
SWIDTH 416 0
DWIDTH 10 0
BBX 9 17 0 0
BITMAP
0780
0780
0780
0780
0780
0780
0780
0780
0780
0780
0780
0780
0F00
9F00
FE00
FC00
F000
ENDCHAR
STARTCHAR K
ENCODING 75
SWIDTH 625 0
DWIDTH 15 0
BBX 13 17 2 0
BITMAP
E078
E0F0
E1E0
E1E0
E3C0
E780
EF00
EF00
FF00
FF80
FB80
FBC0
F1E0
E1E0
E0F0
E0F0
E078
ENDCHAR
STARTCHAR L
ENCODING 76
SWIDTH 562 0
DWIDTH 14 0
BBX 11 17 2 0
BITMAP
E000
E000
E000
E000
E000
E000
E000
E000
E000
E000
E000
E000
E000
E000
FFE0
FFE0
FFE0
ENDCHAR
STARTCHAR M
ENCODING 77
SWIDTH 819 0
DWIDTH 20 0
BBX 17 17 1 0
BITMAP
1F3C00
3FFF00
7FFF80
7BE780
F1E380
F1E380
F1E380
F1E380
F1E380
F1E380
F1E380
F1E380
F1E380
F1E380
F1E380
F1E380
F1E380
ENDCHAR
STARTCHAR N
ENCODING 78
SWIDTH 689 0
DWIDTH 17 0
BBX 13 17 2 0
BITMAP
E038
F038
F838
F838
FC38
FC38
FE38
EE38
EF38
E7B8
E3B8
E3F8
E1F8
E1F8
E0F8
E078
E078
ENDCHAR
STARTCHAR O
ENCODING 79
SWIDTH 777 0
DWIDTH 19 0
BBX 17 17 1 0
BITMAP
07E000
1FF800
3FFC00
7F7E00
780F00
F00700
E00780
E00380
E00380
E00380
E00780
F00780
780F00
7C1F00
3FFE00
1FFC00
07F000
ENDCHAR
STARTCHAR P
ENCODING 80
SWIDTH 642 0
DWIDTH 15 0
BBX 13 17 2 0
BITMAP
FF00
FFC0
FFE0
FFF0
E078
E078
E038
E038
E078
E0F0
FFF0
FFE0
FFC0
FF00
E000
E000
E000
ENDCHAR
STARTCHAR Q
ENCODING 81
SWIDTH 777 0
DWIDTH 19 0
BBX 17 20 1 -3
BITMAP
07E000
1FF800
3FFC00
7F7E00
780F00
F00700
E00780
E00380
E00380
E00380
E00780
F00780
780F00
7C1F00
3FFE00
1FFC00
07F000
007800
003C00
003C00
ENDCHAR
STARTCHAR R
ENCODING 82
SWIDTH 651 0
DWIDTH 16 0
BBX 13 17 2 0
BITMAP
FF00
FFC0
FFE0
FFF0
E078
E078
E038
E038
E078
E0F0
FFF0
FFE0
FFC0
FFC0
E1E0
E0E0
E0F0
ENDCHAR
STARTCHAR S
ENCODING 83
SWIDTH 610 0
DWIDTH 15 0
BBX 13 17 1 0
BITMAP
1FF0
7FF0
FFF0
FFF0
E000
E000
F000
FFC0
7FF0
3FF0
0078
0038
0038
0078
7FF0
7FF0
7FC0
ENDCHAR
STARTCHAR T
ENCODING 84
SWIDTH 578 0
DWIDTH 14 0
BBX 14 17 0 0
BITMAP
FFFC
FFFC
FFFC
FFFC
0780
0780
0780
0780
0780
0780
0780
0780
0780
0780
0780
0780
0780
ENDCHAR
STARTCHAR U
ENCODING 85
SWIDTH 673 0
DWIDTH 16 0
BBX 14 17 1 0
BITMAP
F03C
F03C
F03C
F03C
F03C
F03C
F03C
F03C
F03C
F03C
F03C
F03C
7838
7CF8
3FF0
1FE0
07C0
ENDCHAR
STARTCHAR V
ENCODING 86
SWIDTH 602 0
DWIDTH 14 0
BBX 14 17 0 0
BITMAP
F03C
F03C
783C
7838
7878
3878
3C70
3CF0
1CF0
1EE0
1FE0
0FE0
0FC0
0FC0
07C0
0780
0780
ENDCHAR
STARTCHAR W
ENCODING 87
SWIDTH 819 0
DWIDTH 20 0
BBX 17 17 1 0
BITMAP
F1E380
F1E380
F1E380
F1E380
F1E380
F1E380
F1E380
F1E380
F1E380
F1E380
F1E380
F1E380
F1E380
71E780
7FFF80
3FFF00
1F3E00
ENDCHAR
STARTCHAR X
ENCODING 88
SWIDTH 608 0
DWIDTH 15 0
BBX 14 17 0 0
BITMAP
F03C
783C
7878
3C78
1EF0
1FE0
0FE0
0FC0
07C0
07C0
0FE0
1FE0
1EF0
3CF0
3C78
783C
F03C
ENDCHAR
STARTCHAR Y
ENCODING 89
SWIDTH 620 0
DWIDTH 15 0
BBX 13 17 1 0
BITMAP
E038
E038
E038
E038
E038
E038
E038
F078
7DF0
7FF0
3FE0
0F80
0700
0700
0700
0700
0700
ENDCHAR
STARTCHAR Z
ENCODING 90
SWIDTH 586 0
DWIDTH 14 0
BBX 13 17 1 0
BITMAP
FFF0
FFF0
FFE0
FFE0
03C0
03C0
0780
0780
0F00
0F00
1E00
3E00
3C00
7800
7FF8
FFF8
FFF8
ENDCHAR
STARTCHAR bracketleft
ENCODING 91
SWIDTH 380 0
DWIDTH 9 0
BBX 6 21 2 -2
BITMAP
FC
FC
FC
E0
E0
E0
E0
E0
E0
E0
E0
E0
E0
E0
E0
E0
E0
E0
FC
FC
FC
ENDCHAR
STARTCHAR backslash
ENCODING 92
SWIDTH 490 0
DWIDTH 12 0
BBX 10 17 1 0
BITMAP
E000
F000
7000
7000
7800
3800
3C00
1C00
1E00
0E00
0E00
0F00
0700
0780
0380
0380
03C0
ENDCHAR
STARTCHAR bracketright
ENCODING 93
SWIDTH 380 0
DWIDTH 9 0
BBX 7 21 1 -2
BITMAP
FE
FE
FE
1E
1E
1E
1E
1E
1E
1E
1E
1E
1E
1E
1E
1E
1E
1E
FE
FE
FE
ENDCHAR
STARTCHAR asciicircum
ENCODING 94
SWIDTH 293 0
DWIDTH 7 0
BBX 7 5 0 12
BITMAP
10
38
7C
EE
44
ENDCHAR
STARTCHAR underscore
ENCODING 95
SWIDTH 598 0
DWIDTH 14 0
BBX 10 4 2 -6
BITMAP
FFC0
FFC0
FFC0
FFC0
ENDCHAR
STARTCHAR grave
ENCODING 96
SWIDTH 225 0
DWIDTH 5 0
BBX 5 4 0 12
BITMAP
60
F0
78
18
ENDCHAR
STARTCHAR a
ENCODING 97
SWIDTH 607 0
DWIDTH 15 0
BBX 12 13 1 0
BITMAP
1F00
3FD0
7FF0
F9F0
E0F0
E070
E070
E070
E070
F0F0
7FF0
7FD0
1F90
ENDCHAR
STARTCHAR b
ENCODING 98
SWIDTH 597 0
DWIDTH 14 0
BBX 13 18 1 0
BITMAP
E000
E000
E000
E000
E000
EF80
FFE0
FFE0
F8F0
F070
E078
E038
E078
F078
78F0
7FF0
3FE0
1F80
ENDCHAR
STARTCHAR c
ENCODING 99
SWIDTH 521 0
DWIDTH 13 0
BBX 11 13 1 0
BITMAP
1F00
3FC0
7FE0
F9E0
E0C0
E000
E000
E000
E000
F0C0
7FE0
3FC0
1F80
ENDCHAR
STARTCHAR d
ENCODING 100
SWIDTH 606 0
DWIDTH 15 0
BBX 12 18 1 0
BITMAP
0070
0070
0070
0070
0070
1F70
3FF0
7FF0
F9F0
E0F0
E070
E070
E070
E070
F0F0
7FF0
3FF0
1F90
ENDCHAR
STARTCHAR e
ENCODING 101
SWIDTH 524 0
DWIDTH 13 0
BBX 11 13 1 0
BITMAP
1F00
3FC0
7FE0
F9E0
E3C0
E780
EF00
EE00
FC00
FCC0
7FE0
3FC0
1F80
ENDCHAR
STARTCHAR f
ENCODING 102
SWIDTH 395 0
DWIDTH 10 0
BBX 9 19 1 0
BITMAP
0380
1F80
3F80
3C00
7800
7000
FF00
FF00
FF00
FF00
7000
7000
7000
7000
7000
7000
7000
7000
7000
ENDCHAR
STARTCHAR g
ENCODING 103
SWIDTH 607 0
DWIDTH 15 0
BBX 12 18 1 -5
BITMAP
1F00
3FD0
7FF0
F9F0
E0F0
E070
E070
E070
E070
F0F0
7FF0
7FF0
1FF0
00F0
01F0
0FE0
0FC0
0F00
ENDCHAR
STARTCHAR h
ENCODING 104
SWIDTH 562 0
DWIDTH 13 0
BBX 11 18 1 0
BITMAP
E000
E000
E000
E000
E000
EE00
FF80
FFC0
FBE0
F0E0
E0E0
E0E0
E0E0
E0E0
E0E0
E0E0
E0E0
E0E0
ENDCHAR
STARTCHAR i
ENCODING 105
SWIDTH 235 0
DWIDTH 6 0
BBX 4 18 1 0
BITMAP
E0
F0
F0
E0
00
E0
E0
E0
E0
E0
E0
E0
E0
E0
E0
E0
E0
E0
ENDCHAR
STARTCHAR j
ENCODING 106
SWIDTH 237 0
DWIDTH 6 0
BBX 9 23 -4 -5
BITMAP
0700
0780
0780
0700
0000
0780
0780
0780
0780
0780
0780
0780
0780
0780
0780
0780
0700
0700
0F00
1F00
FE00
FC00
F000
ENDCHAR
STARTCHAR k
ENCODING 107
SWIDTH 539 0
DWIDTH 13 0
BBX 12 18 1 0
BITMAP
E000
E000
E000
E000
E000
E0F0
E1E0
E1C0
E380
E780
EF00
FF00
FF80
FF80
FBC0
F1C0
E1E0
E0F0
ENDCHAR
STARTCHAR l
ENCODING 108
SWIDTH 235 0
DWIDTH 6 0
BBX 3 18 1 0
BITMAP
E0
E0
E0
E0
E0
E0
E0
E0
E0
E0
E0
E0
E0
E0
E0
E0
E0
E0
ENDCHAR
STARTCHAR m
ENCODING 109
SWIDTH 762 0
DWIDTH 18 0
BBX 16 13 1 0
BITMAP
9C38
FFFE
FFFE
FFEF
F1C7
E1C7
E1C7
E1C7
E1C7
E1C7
E1C7
E1C7
E1C7
ENDCHAR
STARTCHAR n
ENCODING 110
SWIDTH 562 0
DWIDTH 13 0
BBX 11 13 1 0
BITMAP
8E00
FF80
FFC0
FBE0
F0E0
E0E0
E0E0
E0E0
E0E0
E0E0
E0E0
E0E0
E0E0
ENDCHAR
STARTCHAR o
ENCODING 111
SWIDTH 579 0
DWIDTH 14 0
BBX 12 13 1 0
BITMAP
1F80
3FC0
7FE0
F9F0
E0F0
E070
E070
E070
E070
F0F0
7FE0
3FC0
1F80
ENDCHAR
STARTCHAR p
ENCODING 112
SWIDTH 608 0
DWIDTH 15 0
BBX 13 18 1 -5
BITMAP
8F80
DFE0
FFF0
F8F0
F078
F038
E038
F038
F078
F8F8
FFF0
FFE0
EFC0
E000
E000
E000
E000
E000
ENDCHAR
STARTCHAR q
ENCODING 113
SWIDTH 607 0
DWIDTH 15 0
BBX 12 18 1 -5
BITMAP
1F00
3FD0
7FF0
F9F0
E0F0
E070
E070
E070
E070
F0F0
7FF0
3FF0
1FF0
0070
0070
0070
0070
0070
ENDCHAR
STARTCHAR r
ENCODING 114
SWIDTH 414 0
DWIDTH 10 0
BBX 9 13 1 0
BITMAP
8380
DF80
FF80
FF80
F000
F000
E000
E000
E000
E000
E000
E000
E000
ENDCHAR
STARTCHAR s
ENCODING 115
SWIDTH 523 0
DWIDTH 13 0
BBX 11 13 1 0
BITMAP
0FC0
7FC0
FFC0
FFC0
E000
FF00
FFC0
7FE0
01E0
00E0
FFE0
FFC0
FF80
ENDCHAR
STARTCHAR t
ENCODING 116
SWIDTH 437 0
DWIDTH 11 0
BBX 10 18 0 0
BITMAP
3800
3800
3800
3800
3800
FFC0
FFC0
FFC0
FFC0
3800
3800
3800
3800
3800
3C00
1FC0
0FC0
07C0
ENDCHAR
STARTCHAR u
ENCODING 117
SWIDTH 562 0
DWIDTH 13 0
BBX 11 13 1 0
BITMAP
E0E0
E0E0
E0E0
E0E0
E0E0
E0E0
E0E0
E0E0
E0E0
F1E0
7FE0
3FE0
1F20
ENDCHAR
STARTCHAR v
ENCODING 118
SWIDTH 532 0
DWIDTH 13 0
BBX 13 13 0 0
BITMAP
F078
F070
70F0
78F0
38E0
39E0
3DC0
1DC0
1FC0
1F80
0F80
0F80
0700
ENDCHAR
STARTCHAR w
ENCODING 119
SWIDTH 756 0
DWIDTH 18 0
BBX 16 13 1 0
BITMAP
E3C7
E3C7
E3C7
E3C7
E3C7
E3C7
E3C7
E3C7
E3C7
F3CF
7FFF
7FFE
3E7C
ENDCHAR
STARTCHAR x
ENCODING 120
SWIDTH 528 0
DWIDTH 13 0
BBX 13 13 0 0
BITMAP
F078
78F0
79E0
3DC0
1FC0
0F80
0F00
0F80
1FC0
3DC0
3DE0
78F0
F070
ENDCHAR
STARTCHAR y
ENCODING 121
SWIDTH 562 0
DWIDTH 14 0
BBX 11 18 1 -5
BITMAP
E0E0
E0E0
E0E0
E0E0
E0E0
E0E0
E0E0
E0E0
E0E0
F1E0
7FE0
3FE0
1FE0
01E0
03C0
1FC0
1F80
1E00
ENDCHAR
STARTCHAR z
ENCODING 122
SWIDTH 481 0
DWIDTH 12 0
BBX 10 13 1 0
BITMAP
FFC0
FF80
FF80
FF00
0F00
0E00
1E00
1C00
3800
3800
7FC0
FFC0
FFC0
ENDCHAR
STARTCHAR braceleft
ENCODING 123
SWIDTH 466 0
DWIDTH 11 0
BBX 10 21 0 -2
BITMAP
07C0
0FC0
0FC0
0E00
0E00
0E00
0E00
0E00
1E00
FC00
F800
FC00
1E00
0E00
0E00
0E00
0E00
0E00
0FC0
0FC0
07C0
ENDCHAR
STARTCHAR bar
ENCODING 124
SWIDTH 267 0
DWIDTH 6 0
BBX 3 21 2 -2
BITMAP
E0
E0
E0
E0
E0
E0
E0
E0
E0
E0
E0
E0
E0
E0
E0
E0
E0
E0
E0
E0
E0
ENDCHAR
STARTCHAR braceright
ENCODING 125
SWIDTH 466 0
DWIDTH 11 0
BBX 10 21 1 -2
BITMAP
F800
FC00
FE00
1E00
1E00
1E00
1E00
1E00
1E00
0FC0
07C0
0FC0
1E00
1E00
1E00
1E00
1E00
1E00
FE00
FC00
FC00
ENDCHAR
STARTCHAR asciitilde
ENCODING 126
SWIDTH 451 0
DWIDTH 11 0
BBX 9 4 1 7
BITMAP
7380
FB80
FF80
EF00
ENDCHAR
STARTCHAR nonbreakingspace
ENCODING 160
SWIDTH 279 0
DWIDTH 7 0
BBX 1 1 0 0
BITMAP
00
ENDCHAR
STARTCHAR exclamdown
ENCODING 161
SWIDTH 274 0
DWIDTH 7 0
BBX 4 17 1 -3
BITMAP
70
F0
F0
60
00
70
70
70
70
70
70
70
70
F0
F0
F0
F0
ENDCHAR
STARTCHAR cent
ENCODING 162
SWIDTH 462 0
DWIDTH 11 0
BBX 9 17 1 0
BITMAP
0C00
0C00
0C00
1E00
3F80
7F80
E100
E000
E000
E000
F100
7F80
3F00
0C00
0C00
0C00
0C00
ENDCHAR
STARTCHAR sterling
ENCODING 163
SWIDTH 681 0
DWIDTH 16 0
BBX 15 17 1 0
BITMAP
0380
0F80
1F80
3F80
3C00
3800
3800
FF00
FF00
FF00
FF00
3800
381E
383C
3FFC
3FF8
3FF0
ENDCHAR
STARTCHAR currency
ENCODING 164
SWIDTH 454 0
DWIDTH 11 0
BBX 9 10 1 3
BITMAP
4100
FF80
FF00
6300
6300
6300
6300
FF80
DF80
0100
ENDCHAR
STARTCHAR yen
ENCODING 165
SWIDTH 653 0
DWIDTH 16 0
BBX 14 17 1 0
BITMAP
E03C
E03C
E03C
E03C
E03C
E03C
F038
7078
7DF8
3FF0
1FE0
7FF8
7FF8
7FF8
0780
0780
0780
ENDCHAR
STARTCHAR brokenbar
ENCODING 166
SWIDTH 269 0
DWIDTH 6 0
BBX 3 21 2 -2
BITMAP
E0
E0
E0
E0
E0
E0
E0
E0
E0
00
00
00
E0
E0
E0
E0
E0
E0
E0
E0
E0
ENDCHAR
STARTCHAR section
ENCODING 167
SWIDTH 569 0
DWIDTH 14 0
BBX 12 17 1 0
BITMAP
1FE0
7FE0
7FE0
F000
F000
7FC0
7FE0
FFE0
F0F0
FFE0
7FE0
3FE0
0FF0
00F0
FFE0
FFE0
FFC0
ENDCHAR
STARTCHAR dieresis
ENCODING 168
SWIDTH 300 0
DWIDTH 7 0
BBX 7 3 0 13
BITMAP
44
EE
EE
ENDCHAR
STARTCHAR copyright
ENCODING 169
SWIDTH 655 0
DWIDTH 16 0
BBX 14 13 1 2
BITMAP
0FC0
3FE0
7030
6FD8
DC88
D80C
D00C
D00C
D808
6F98
77B0
3CF0
1FC0
ENDCHAR
STARTCHAR ordfeminine
ENCODING 170
SWIDTH 451 0
DWIDTH 11 0
BBX 8 11 1 6
BITMAP
3D
7F
63
C3
C3
67
7F
1D
00
FF
FF
ENDCHAR
STARTCHAR guillemotleft
ENCODING 171
SWIDTH 704 0
DWIDTH 17 0
BBX 15 12 1 0
BITMAP
040C
0E1E
1E3C
3C78
78F0
F1E0
F1F0
78F8
3E7C
1F3E
0E0C
0400
ENDCHAR
STARTCHAR logicalnot
ENCODING 172
SWIDTH 529 0
DWIDTH 13 0
BBX 10 5 1 5
BITMAP
FFC0
FFC0
FFC0
01C0
01C0
ENDCHAR
STARTCHAR uni00AD
ENCODING 173
SWIDTH 418 0
DWIDTH 10 0
BBX 8 3 1 7
BITMAP
FF
FF
FF
ENDCHAR
STARTCHAR registered
ENCODING 174
SWIDTH 439 0
DWIDTH 11 0
BBX 9 9 1 8
BITMAP
3C00
6300
FD00
A780
A480
BD80
E500
6600
1C00
ENDCHAR
STARTCHAR macron
ENCODING 175
SWIDTH 247 0
DWIDTH 6 0
BBX 6 2 0 13
BITMAP
FC
FC
ENDCHAR
STARTCHAR degree
ENCODING 176
SWIDTH 381 0
DWIDTH 9 0
BBX 7 7 1 9
BITMAP
7C
FE
EE
C6
EE
7E
38
ENDCHAR
STARTCHAR plusminus
ENCODING 177
SWIDTH 516 0
DWIDTH 12 0
BBX 10 13 1 0
BITMAP
0E00
0E00
0E00
FFC0
FFC0
FFC0
0E00
0E00
0E00
0000
FFC0
FFC0
FFC0
ENDCHAR
STARTCHAR twosuperior
ENCODING 178
SWIDTH 355 0
DWIDTH 9 0
BBX 6 8 1 9
BITMAP
78
7C
0C
3C
7C
E0
FC
FC
ENDCHAR
STARTCHAR threesuperior
ENCODING 179
SWIDTH 354 0
DWIDTH 9 0
BBX 6 8 1 9
BITMAP
F8
FC
FC
7C
7C
0C
FC
FC
ENDCHAR
STARTCHAR acute
ENCODING 180
SWIDTH 225 0
DWIDTH 5 0
BBX 5 5 0 12
BITMAP
10
30
78
F0
40
ENDCHAR
STARTCHAR mu
ENCODING 181
SWIDTH 571 0
DWIDTH 14 0
BBX 12 18 1 -5
BITMAP
F0F0
F0F0
F0F0
F0F0
F0F0
F0F0
F0F0
F0F0
F0F0
F9F0
FFF0
FFF0
FF90
E000
E000
E000
E000
E000
ENDCHAR
STARTCHAR paragraph
ENCODING 182
SWIDTH 808 0
DWIDTH 19 0
BBX 17 17 1 0
BITMAP
07FF80
1FFF80
3FFF80
7FFF80
F1C780
F1C780
E1C780
E1C780
F1C780
F9C780
7FC780
3FC780
1FC780
07C780
01C780
01C780
01C780
ENDCHAR
STARTCHAR periodcentered
ENCODING 183
SWIDTH 261 0
DWIDTH 6 0
BBX 4 4 1 6
BITMAP
F0
F0
F0
20
ENDCHAR
STARTCHAR cedilla
ENCODING 184
SWIDTH 208 0
DWIDTH 5 0
BBX 5 6 0 -5
BITMAP
30
20
30
18
F8
F0
ENDCHAR
STARTCHAR onesuperior
ENCODING 185
SWIDTH 231 0
DWIDTH 6 0
BBX 3 8 1 9
BITMAP
E0
E0
60
60
60
60
60
60
ENDCHAR
STARTCHAR ordmasculine
ENCODING 186
SWIDTH 432 0
DWIDTH 10 0
BBX 8 11 1 6
BITMAP
3C
7E
63
C3
C3
67
7E
1C
00
FF
FF
ENDCHAR
STARTCHAR guillemotright
ENCODING 187
SWIDTH 703 0
DWIDTH 17 0
BBX 15 12 1 0
BITMAP
6040
F1E0
78F0
3C78
1E3C
0F1E
1F1E
3E7C
78F8
F1F0
60E0
0040
ENDCHAR
STARTCHAR onequarter
ENCODING 188
SWIDTH 648 0
DWIDTH 16 0
BBX 14 17 1 0
BITMAP
7060
70E0
70C0
71C0
7180
7380
7300
7700
0600
0ED8
1CD8
19D8
39D8
31FC
71FC
61FC
E018
ENDCHAR
STARTCHAR onehalf
ENCODING 189
SWIDTH 637 0
DWIDTH 15 0
BBX 13 17 1 0
BITMAP
7060
70E0
70C0
71C0
7180
7380
7300
7700
0600
0EF8
1CF8
1818
38F8
31F0
71C0
61F8
E1F8
ENDCHAR
STARTCHAR threequarters
ENCODING 190
SWIDTH 708 0
DWIDTH 17 0
BBX 15 17 1 0
BITMAP
F838
FC30
FC70
7C60
7CE0
0CC0
FDC0
F980
0380
076C
066C
0E6C
0C6C
1C7E
18FE
38FE
300C
ENDCHAR
STARTCHAR questiondown
ENCODING 191
SWIDTH 602 0
DWIDTH 14 0
BBX 13 17 1 -3
BITMAP
03C0
03C0
03C0
0180
0000
03C0
03C0
0F80
3F80
7F00
FC00
E000
E000
F000
FFF8
7FF8
3FF8
ENDCHAR
STARTCHAR Agrave
ENCODING 192
SWIDTH 673 0
DWIDTH 16 0
BBX 14 22 1 0
BITMAP
0C00
1E00
0F00
0300
0000
0780
1FE0
3FF0
7FF8
7878
703C
F03C
F03C
F03C
F03C
FFFC
FFFC
FFFC
FFFC
F03C
F03C
F03C
ENDCHAR
STARTCHAR Aacute
ENCODING 193
SWIDTH 673 0
DWIDTH 16 0
BBX 14 23 1 0
BITMAP
0040
00C0
01E0
03C0
0100
0000
0780
1FE0
3FF0
7FF8
7878
703C
F03C
F03C
F03C
F03C
FFFC
FFFC
FFFC
FFFC
F03C
F03C
F03C
ENDCHAR
STARTCHAR Acircumflex
ENCODING 194
SWIDTH 673 0
DWIDTH 16 0
BBX 14 22 1 0
BITMAP
0300
0780
0FC0
0480
0000
0780
1FE0
3FF0
7FF8
7878
703C
F03C
F03C
F03C
F03C
FFFC
FFFC
FFFC
FFFC
F03C
F03C
F03C
ENDCHAR
STARTCHAR Atilde
ENCODING 195
SWIDTH 673 0
DWIDTH 16 0
BBX 14 22 1 0
BITMAP
0420
1F60
1FE0
1DC0
0000
0780
1FE0
3FF0
7FF8
7878
703C
F03C
F03C
F03C
F03C
FFFC
FFFC
FFFC
FFFC
F03C
F03C
F03C
ENDCHAR
STARTCHAR Adieresis
ENCODING 196
SWIDTH 673 0
DWIDTH 16 0
BBX 14 21 1 0
BITMAP
0C40
1CE0
0CE0
0000
0780
1FE0
3FF0
7FF8
7878
703C
F03C
F03C
F03C
F03C
FFFC
FFFC
FFFC
FFFC
F03C
F03C
F03C
ENDCHAR
STARTCHAR Aring
ENCODING 197
SWIDTH 673 0
DWIDTH 16 0
BBX 14 21 1 0
BITMAP
0300
0780
0480
0780
0780
1FE0
3FF0
7FF8
7878
703C
F03C
F03C
F03C
F03C
FFFC
FFFC
FFFC
FFFC
F03C
F03C
F03C
ENDCHAR
STARTCHAR AE
ENCODING 198
SWIDTH 988 0
DWIDTH 24 0
BBX 22 17 1 0
BITMAP
07FFFC
1FFFFC
3FFFFC
7FFFFC
783C00
703C00
F03C00
F03FE0
F03FE0
F03FE0
FFFC00
FFFC00
FFFC00
FFFC00
F03FFC
F03FFC
F03FFC
ENDCHAR
STARTCHAR Ccedilla
ENCODING 199
SWIDTH 640 0
DWIDTH 15 0
BBX 14 22 1 -5
BITMAP
07E0
1FF8
3FFC
7F78
7800
F000
E000
E000
E000
E000
E000
F000
7800
7C18
3FFC
1FFC
07F0
0300
0380
0180
0780
0F80
ENDCHAR
STARTCHAR Egrave
ENCODING 200
SWIDTH 578 0
DWIDTH 14 0
BBX 11 23 2 0
BITMAP
1000
3800
3C00
1E00
0C00
0000
FFE0
FFE0
FFE0
FFE0
E000
E000
E000
FF00
FF00
FF00
E000
E000
E000
E000
FFE0
FFE0
FFE0
ENDCHAR
STARTCHAR Eacute
ENCODING 201
SWIDTH 578 0
DWIDTH 14 0
BBX 11 23 2 0
BITMAP
0100
0380
0780
0F00
0600
0000
FFE0
FFE0
FFE0
FFE0
E000
E000
E000
FF00
FF00
FF00
E000
E000
E000
E000
FFE0
FFE0
FFE0
ENDCHAR
STARTCHAR Ecircumflex
ENCODING 202
SWIDTH 578 0
DWIDTH 14 0
BBX 11 23 2 0
BITMAP
0400
0E00
1F00
3B00
1100
0000
FFE0
FFE0
FFE0
FFE0
E000
E000
E000
FF00
FF00
FF00
E000
E000
E000
E000
FFE0
FFE0
FFE0
ENDCHAR
STARTCHAR Edieresis
ENCODING 203
SWIDTH 578 0
DWIDTH 14 0
BBX 11 21 2 0
BITMAP
1100
3B80
3B80
0000
FFE0
FFE0
FFE0
FFE0
E000
E000
E000
FF00
FF00
FF00
E000
E000
E000
E000
FFE0
FFE0
FFE0
ENDCHAR
STARTCHAR Igrave
ENCODING 204
SWIDTH 270 0
DWIDTH 6 0
BBX 6 22 -1 0
BITMAP
60
F8
7C
18
00
1C
1C
1C
1C
1C
1C
1C
1C
1C
1C
1C
1C
1C
1C
1C
1C
1C
ENDCHAR
STARTCHAR Iacute
ENCODING 205
SWIDTH 270 0
DWIDTH 6 0
BBX 5 23 2 0
BITMAP
10
30
78
F0
40
00
E0
E0
E0
E0
E0
E0
E0
E0
E0
E0
E0
E0
E0
E0
E0
E0
E0
ENDCHAR
STARTCHAR Icircumflex
ENCODING 206
SWIDTH 270 0
DWIDTH 6 0
BBX 6 22 0 0
BITMAP
38
7C
EC
44
00
38
38
38
38
38
38
38
38
38
38
38
38
38
38
38
38
38
ENDCHAR
STARTCHAR Idieresis
ENCODING 207
SWIDTH 270 0
DWIDTH 6 0
BBX 7 21 0 0
BITMAP
C4
EE
CE
00
38
38
38
38
38
38
38
38
38
38
38
38
38
38
38
38
38
ENDCHAR
STARTCHAR Eth
ENCODING 208
SWIDTH 672 0
DWIDTH 16 0
BBX 15 17 0 0
BITMAP
3F80
3FF0
3FF8
3FFC
383C
381E
380E
FE0E
FE0E
FE0E
380E
381E
383E
38FC
3FF8
3FF0
3FC0
ENDCHAR
STARTCHAR Ntilde
ENCODING 209
SWIDTH 689 0
DWIDTH 17 0
BBX 13 22 2 0
BITMAP
0040
1EC0
3FC0
3BC0
0000
E038
F038
F838
F838
FC38
FC38
FE38
EE38
EF38
E7B8
E3B8
E3F8
E1F8
E1F8
E0F8
E078
E078
ENDCHAR
STARTCHAR Ograve
ENCODING 210
SWIDTH 777 0
DWIDTH 19 0
BBX 17 22 1 0
BITMAP
060000
0F8000
03C000
018000
000000
07E000
1FF800
3FFC00
7F7E00
780F00
F00700
E00780
E00380
E00380
E00380
E00780
F00780
780F00
7C1F00
3FFE00
1FFC00
07F000
ENDCHAR
STARTCHAR Oacute
ENCODING 211
SWIDTH 777 0
DWIDTH 19 0
BBX 17 23 1 0
BITMAP
002000
007000
00F000
01E000
00C000
000000
07E000
1FF800
3FFC00
7F7E00
780F00
F00700
E00780
E00380
E00380
E00380
E00780
F00780
780F00
7C1F00
3FFE00
1FFC00
07F000
ENDCHAR
STARTCHAR Ocircumflex
ENCODING 212
SWIDTH 777 0
DWIDTH 19 0
BBX 17 23 1 0
BITMAP
008000
01C000
03E000
076000
022000
000000
07E000
1FF800
3FFC00
7F7E00
780F00
F00700
E00780
E00380
E00380
E00380
E00780
F00780
780F00
7C1F00
3FFE00
1FFC00
07F000
ENDCHAR
STARTCHAR Otilde
ENCODING 213
SWIDTH 777 0
DWIDTH 19 0
BBX 17 22 1 0
BITMAP
001000
07B000
0FF000
06F000
000000
07E000
1FF800
3FFC00
7F7E00
780F00
F00700
E00780
E00380
E00380
E00380
E00780
F00780
780F00
7C1F00
3FFE00
1FFC00
07F000
ENDCHAR
STARTCHAR Odieresis
ENCODING 214
SWIDTH 777 0
DWIDTH 19 0
BBX 17 21 1 0
BITMAP
022000
077000
077000
000000
07E000
1FF800
3FFC00
7F7E00
780F00
F00700
E00780
E00380
E00380
E00380
E00780
F00780
780F00
7C1F00
3FFE00
1FFC00
07F000
ENDCHAR
STARTCHAR multiply
ENCODING 215
SWIDTH 479 0
DWIDTH 12 0
BBX 9 9 1 4
BITMAP
2300
7780
FF80
7F00
3E00
7F00
FF80
7780
2300
ENDCHAR
STARTCHAR Oslash
ENCODING 216
SWIDTH 777 0
DWIDTH 19 0
BBX 17 17 1 0
BITMAP
07E700
1FFE00
3FFC00
7F3E00
783F00
F07700
E0E780
E0E380
E1C380
E38380
E78780
F70780
7E0F00
7C1F00
3FFE00
3FFC00
77F000
ENDCHAR
STARTCHAR Ugrave
ENCODING 217
SWIDTH 673 0
DWIDTH 16 0
BBX 14 22 1 0
BITMAP
0C00
1E00
0F00
0300
0000
F03C
F03C
F03C
F03C
F03C
F03C
F03C
F03C
F03C
F03C
F03C
F03C
7838
7CF8
3FF0
1FE0
07C0
ENDCHAR
STARTCHAR Uacute
ENCODING 218
SWIDTH 673 0
DWIDTH 16 0
BBX 14 23 1 0
BITMAP
0040
00C0
01E0
03C0
0100
0000
F03C
F03C
F03C
F03C
F03C
F03C
F03C
F03C
F03C
F03C
F03C
F03C
7838
7CF8
3FF0
1FE0
07C0
ENDCHAR
STARTCHAR Ucircumflex
ENCODING 219
SWIDTH 673 0
DWIDTH 16 0
BBX 14 21 1 0
BITMAP
0300
0780
0FC0
0480
F03C
F03C
F03C
F03C
F03C
F03C
F03C
F03C
F03C
F03C
F03C
F03C
7838
7CF8
3FF0
1FE0
07C0
ENDCHAR
STARTCHAR Udieresis
ENCODING 220
SWIDTH 673 0
DWIDTH 16 0
BBX 14 21 1 0
BITMAP
0C40
1CE0
0CE0
0000
F03C
F03C
F03C
F03C
F03C
F03C
F03C
F03C
F03C
F03C
F03C
F03C
7838
7CF8
3FF0
1FE0
07C0
ENDCHAR
STARTCHAR Yacute
ENCODING 221
SWIDTH 620 0
DWIDTH 15 0
BBX 13 23 1 0
BITMAP
0080
01C0
03C0
0780
0300
0000
E038
E038
E038
E038
E038
E038
E038
F078
7DF0
7FF0
3FE0
0F80
0700
0700
0700
0700
0700
ENDCHAR
STARTCHAR Thorn
ENCODING 222
SWIDTH 637 0
DWIDTH 15 0
BBX 13 19 2 -1
BITMAP
E000
E000
E000
FF80
FFE0
FFF0
E0F0
E078
E078
E038
E078
E078
E0F0
FFF0
FFE0
FF80
E000
E000
E000
ENDCHAR
STARTCHAR germandbls
ENCODING 223
SWIDTH 813 0
DWIDTH 20 0
BBX 18 19 1 0
BITMAP
03E000
1FF800
3FFC00
3C3C00
781E00
701E00
F03C00
F1FC00
F3F800
F3E000
738000
73FF00
73FF80
71FFC0
7001C0
7001C0
71FFC0
71FF80
71FF00
ENDCHAR
STARTCHAR agrave
ENCODING 224
SWIDTH 607 0
DWIDTH 15 0
BBX 12 18 1 0
BITMAP
1800
3C00
1E00
0600
0000
1F00
3FD0
7FF0
F9F0
E0F0
E070
E070
E070
E070
F0F0
7FF0
7FD0
1F90
ENDCHAR
STARTCHAR aacute
ENCODING 225
SWIDTH 607 0
DWIDTH 15 0
BBX 12 18 1 0
BITMAP
0180
03C0
0780
0600
0000
1F00
3FD0
7FF0
F9F0
E0F0
E070
E070
E070
E070
F0F0
7FF0
7FD0
1F90
ENDCHAR
STARTCHAR acircumflex
ENCODING 226
SWIDTH 607 0
DWIDTH 15 0
BBX 12 18 1 0
BITMAP
0600
0F00
1F80
0900
0000
1F00
3FD0
7FF0
F9F0
E0F0
E070
E070
E070
E070
F0F0
7FF0
7FD0
1F90
ENDCHAR
STARTCHAR atilde
ENCODING 227
SWIDTH 607 0
DWIDTH 15 0
BBX 12 18 1 0
BITMAP
0840
3CC0
3FC0
3380
2000
1F00
3FD0
7FF0
F9F0
E0F0
E070
E070
E070
E070
F0F0
7FF0
7FD0
1F90
ENDCHAR
STARTCHAR adieresis
ENCODING 228
SWIDTH 607 0
DWIDTH 15 0
BBX 12 17 1 0
BITMAP
1880
39C0
1980
0000
1F00
3FD0
7FF0
F9F0
E0F0
E070
E070
E070
E070
F0F0
7FF0
7FD0
1F90
ENDCHAR
STARTCHAR aring
ENCODING 229
SWIDTH 607 0
DWIDTH 15 0
BBX 12 19 1 0
BITMAP
0600
0F00
0900
0F00
0600
0000
1F00
3FD0
7FF0
F9F0
E0F0
E070
E070
E070
E070
F0F0
7FF0
7FD0
1F90
ENDCHAR
STARTCHAR ae
ENCODING 230
SWIDTH 976 0
DWIDTH 23 0
BBX 22 13 1 0
BITMAP
1F03E0
3FD7F8
7FFFFC
F9FE38
E0FC78
E07CF0
E07DE0
E07DC0
E07F90
F0FF18
7FFFFC
7FDFF8
1F93F0
ENDCHAR
STARTCHAR ccedilla
ENCODING 231
SWIDTH 521 0
DWIDTH 13 0
BBX 11 18 1 -5
BITMAP
1F00
3FC0
7FE0
F9E0
E0C0
E000
E000
E000
E000
F0C0
7FE0
3FC0
1F80
0400
0E00
0700
1F00
1E00
ENDCHAR
STARTCHAR egrave
ENCODING 232
SWIDTH 524 0
DWIDTH 13 0
BBX 11 19 1 0
BITMAP
1000
1800
3C00
1E00
0400
0000
1F00
3FC0
7FE0
F9E0
E3C0
E780
EF00
EE00
FC00
FCC0
7FE0
3FC0
1F80
ENDCHAR
STARTCHAR eacute
ENCODING 233
SWIDTH 524 0
DWIDTH 13 0
BBX 11 18 1 0
BITMAP
0180
03C0
0780
0600
0000
1F00
3FC0
7FE0
F9E0
E3C0
E780
EF00
EE00
FC00
FCC0
7FE0
3FC0
1F80
ENDCHAR
STARTCHAR ecircumflex
ENCODING 234
SWIDTH 524 0
DWIDTH 13 0
BBX 11 19 1 0
BITMAP
0400
0E00
1F00
3B00
1100
0000
1F00
3FC0
7FE0
F9E0
E3C0
E780
EF00
EE00
FC00
FCC0
7FE0
3FC0
1F80
ENDCHAR
STARTCHAR edieresis
ENCODING 235
SWIDTH 524 0
DWIDTH 13 0
BBX 11 17 1 0
BITMAP
1100
3B80
3B80
0000
1F00
3FC0
7FE0
F9E0
E3C0
E780
EF00
EE00
FC00
FCC0
7FE0
3FC0
1F80
ENDCHAR
STARTCHAR igrave
ENCODING 236
SWIDTH 235 0
DWIDTH 6 0
BBX 5 19 -1 0
BITMAP
40
60
F0
78
10
00
38
38
38
38
38
38
38
38
38
38
38
38
38
ENDCHAR
STARTCHAR iacute
ENCODING 237
SWIDTH 235 0
DWIDTH 6 0
BBX 6 18 1 0
BITMAP
18
3C
78
60
00
E0
E0
E0
E0
E0
E0
E0
E0
E0
E0
E0
E0
E0
ENDCHAR
STARTCHAR icircumflex
ENCODING 238
SWIDTH 235 0
DWIDTH 6 0
BBX 6 17 0 0
BITMAP
30
F8
FC
48
70
70
70
70
70
70
70
70
70
70
70
70
70
ENDCHAR
STARTCHAR idieresis
ENCODING 239
SWIDTH 235 0
DWIDTH 6 0
BBX 7 17 -1 0
BITMAP
46
E6
E6
00
38
38
38
38
38
38
38
38
38
38
38
38
38
ENDCHAR
STARTCHAR eth
ENCODING 240
SWIDTH 581 0
DWIDTH 14 0
BBX 12 18 1 0
BITMAP
0F00
3FF0
3FF0
3FF0
01C0
0FE0
3FE0
7FF0
F9F0
E0F0
E070
E070
E070
E070
F0F0
7FE0
3FC0
1F80
ENDCHAR
STARTCHAR ntilde
ENCODING 241
SWIDTH 562 0
DWIDTH 13 0
BBX 11 18 1 0
BITMAP
0800
3DC0
3FC0
3380
0000
8E00
FF80
FFC0
FBE0
F0E0
E0E0
E0E0
E0E0
E0E0
E0E0
E0E0
E0E0
E0E0
ENDCHAR
STARTCHAR ograve
ENCODING 242
SWIDTH 579 0
DWIDTH 14 0
BBX 12 18 1 0
BITMAP
1800
3C00
1E00
0400
0000
1F80
3FC0
7FE0
F9F0
E0F0
E070
E070
E070
E070
F0F0
7FE0
3FC0
1F80
ENDCHAR
STARTCHAR oacute
ENCODING 243
SWIDTH 579 0
DWIDTH 14 0
BBX 12 18 1 0
BITMAP
0180
03C0
0780
0600
0000
1F80
3FC0
7FE0
F9F0
E0F0
E070
E070
E070
E070
F0F0
7FE0
3FC0
1F80
ENDCHAR
STARTCHAR ocircumflex
ENCODING 244
SWIDTH 579 0
DWIDTH 14 0
BBX 12 18 1 0
BITMAP
0600
0F00
1F80
0900
0000
1F80
3FC0
7FE0
F9F0
E0F0
E070
E070
E070
E070
F0F0
7FE0
3FC0
1F80
ENDCHAR
STARTCHAR otilde
ENCODING 245
SWIDTH 579 0
DWIDTH 14 0
BBX 12 18 1 0
BITMAP
0840
3DC0
3FC0
3380
0000
1F80
3FC0
7FE0
F9F0
E0F0
E070
E070
E070
E070
F0F0
7FE0
3FC0
1F80
ENDCHAR
STARTCHAR odieresis
ENCODING 246
SWIDTH 579 0
DWIDTH 14 0
BBX 12 17 1 0
BITMAP
1180
3980
1980
0000
1F80
3FC0
7FE0
F9F0
E0F0
E070
E070
E070
E070
F0F0
7FE0
3FC0
1F80
ENDCHAR
STARTCHAR divide
ENCODING 247
SWIDTH 494 0
DWIDTH 12 0
BBX 10 11 1 3
BITMAP
1C00
1E00
0C00
0000
FFC0
FFC0
FFC0
0000
0C00
1E00
0C00
ENDCHAR
STARTCHAR oslash
ENCODING 248
SWIDTH 579 0
DWIDTH 14 0
BBX 12 13 1 0
BITMAP
1FF0
3FE0
7FE0
F9F0
E3F0
E770
EF70
EE70
FC70
F8F0
7FE0
7FC0
FF80
ENDCHAR
STARTCHAR ugrave
ENCODING 249
SWIDTH 562 0
DWIDTH 13 0
BBX 11 18 1 0
BITMAP
1000
3800
3C00
1E00
0C00
E0E0
E0E0
E0E0
E0E0
E0E0
E0E0
E0E0
E0E0
E0E0
F1E0
7FE0
3FE0
1F20
ENDCHAR
STARTCHAR uacute
ENCODING 250
SWIDTH 562 0
DWIDTH 13 0
BBX 11 17 1 0
BITMAP
0380
07C0
0F00
0600
E0E0
E0E0
E0E0
E0E0
E0E0
E0E0
E0E0
E0E0
E0E0
F1E0
7FE0
3FE0
1F20
ENDCHAR
STARTCHAR ucircumflex
ENCODING 251
SWIDTH 562 0
DWIDTH 13 0
BBX 11 18 1 0
BITMAP
0400
0E00
1F00
1B80
0100
E0E0
E0E0
E0E0
E0E0
E0E0
E0E0
E0E0
E0E0
E0E0
F1E0
7FE0
3FE0
1F20
ENDCHAR
STARTCHAR udieresis
ENCODING 252
SWIDTH 562 0
DWIDTH 13 0
BBX 11 17 1 0
BITMAP
1100
3B80
3980
0000
E0E0
E0E0
E0E0
E0E0
E0E0
E0E0
E0E0
E0E0
E0E0
F1E0
7FE0
3FE0
1F20
ENDCHAR
STARTCHAR yacute
ENCODING 253
SWIDTH 562 0
DWIDTH 14 0
BBX 11 22 1 -5
BITMAP
0380
07C0
0F00
0600
E0E0
E0E0
E0E0
E0E0
E0E0
E0E0
E0E0
E0E0
E0E0
F1E0
7FE0
3FE0
1FE0
01E0
03C0
1FC0
1F80
1E00
ENDCHAR
STARTCHAR thorn
ENCODING 254
SWIDTH 608 0
DWIDTH 15 0
BBX 13 23 1 -5
BITMAP
F000
F000
F000
F000
F000
FF80
FFE0
FFF0
F8F0
F078
F038
E038
F038
F078
F8F8
FFF0
FFE0
EFC0
E000
E000
E000
E000
E000
ENDCHAR
STARTCHAR ydieresis
ENCODING 255
SWIDTH 562 0
DWIDTH 14 0
BBX 11 22 1 -5
BITMAP
1100
3B80
3980
0000
E0E0
E0E0
E0E0
E0E0
E0E0
E0E0
E0E0
E0E0
E0E0
F1E0
7FE0
3FE0
1FE0
01E0
03C0
1FC0
1F80
1E00
ENDCHAR
STARTCHAR Amacron
ENCODING 256
SWIDTH 673 0
DWIDTH 16 0
BBX 14 20 1 0
BITMAP
0FC0
0FC0
0000
0780
1FE0
3FF0
7FF8
7878
703C
F03C
F03C
F03C
F03C
FFFC
FFFC
FFFC
FFFC
F03C
F03C
F03C
ENDCHAR
STARTCHAR amacron
ENCODING 257
SWIDTH 607 0
DWIDTH 15 0
BBX 12 16 1 0
BITMAP
1F80
1F80
0000
1F00
3FD0
7FF0
F9F0
E0F0
E070
E070
E070
E070
F0F0
7FF0
7FD0
1F90
ENDCHAR
STARTCHAR Abreve
ENCODING 258
SWIDTH 673 0
DWIDTH 16 0
BBX 14 21 1 0
BITMAP
0DC0
0F80
0780
0000
0780
1FE0
3FF0
7FF8
7878
703C
F03C
F03C
F03C
F03C
FFFC
FFFC
FFFC
FFFC
F03C
F03C
F03C
ENDCHAR
STARTCHAR abreve
ENCODING 259
SWIDTH 607 0
DWIDTH 15 0
BBX 12 17 1 0
BITMAP
1B00
1F00
0F00
0000
1F00
3FD0
7FF0
F9F0
E0F0
E070
E070
E070
E070
F0F0
7FF0
7FD0
1F90
ENDCHAR
STARTCHAR Aogonek
ENCODING 260
SWIDTH 673 0
DWIDTH 16 0
BBX 14 21 1 -4
BITMAP
0780
1FE0
3FF0
7FF8
7878
703C
F03C
F03C
F03C
F03C
FFFC
FFFC
FFFC
FFFC
F03C
F03C
F03C
0030
0030
003C
003C
ENDCHAR
STARTCHAR aogonek
ENCODING 261
SWIDTH 607 0
DWIDTH 15 0
BBX 14 17 1 -4
BITMAP
1F00
3FD0
7FF0
F9F0
E0F0
E070
E070
E070
E070
F0F0
7FF0
7FD0
1F90
0030
0060
007C
003C
ENDCHAR
STARTCHAR Cacute
ENCODING 262
SWIDTH 640 0
DWIDTH 15 0
BBX 14 22 1 0
BITMAP
0060
00F0
01E0
0180
0000
07E0
1FF8
3FFC
7F78
7800
F000
E000
E000
E000
E000
E000
F000
7800
7C18
3FFC
1FFC
07F0
ENDCHAR
STARTCHAR cacute
ENCODING 263
SWIDTH 521 0
DWIDTH 13 0
BBX 11 19 1 0
BITMAP
0100
0380
07C0
0F00
0600
0000
1F00
3FC0
7FE0
F9E0
E0C0
E000
E000
E000
E000
F0C0
7FE0
3FC0
1F80
ENDCHAR
STARTCHAR Ccircumflex
ENCODING 264
SWIDTH 640 0
DWIDTH 15 0
BBX 14 22 1 0
BITMAP
0180
07C0
07E0
0240
0000
07E0
1FF8
3FFC
7F78
7800
F000
E000
E000
E000
E000
E000
F000
7800
7C18
3FFC
1FFC
07F0
ENDCHAR
STARTCHAR ccircumflex
ENCODING 265
SWIDTH 521 0
DWIDTH 13 0
BBX 11 18 1 0
BITMAP
0600
1F00
1F80
0900
0000
1F00
3FC0
7FE0
F9E0
E0C0
E000
E000
E000
E000
F0C0
7FE0
3FC0
1F80
ENDCHAR
STARTCHAR Cdotaccent
ENCODING 266
SWIDTH 640 0
DWIDTH 15 0
BBX 14 21 1 0
BITMAP
0180
01C0
0180
0000
07E0
1FF8
3FFC
7F78
7800
F000
E000
E000
E000
E000
E000
F000
7800
7C18
3FFC
1FFC
07F0
ENDCHAR
STARTCHAR cdotaccent
ENCODING 267
SWIDTH 521 0
DWIDTH 13 0
BBX 11 17 1 0
BITMAP
0600
0E00
0600
0000
1F00
3FC0
7FE0
F9E0
E0C0
E000
E000
E000
E000
F0C0
7FE0
3FC0
1F80
ENDCHAR
STARTCHAR Ccaron
ENCODING 268
SWIDTH 640 0
DWIDTH 15 0
BBX 14 23 1 0
BITMAP
0200
07E0
03E0
01C0
0080
0000
07E0
1FF8
3FFC
7F78
7800
F000
E000
E000
E000
E000
E000
F000
7800
7C18
3FFC
1FFC
07F0
ENDCHAR
STARTCHAR ccaron
ENCODING 269
SWIDTH 521 0
DWIDTH 13 0
BBX 11 19 1 0
BITMAP
0900
1F80
0F00
0600
0000
0000
1F00
3FC0
7FE0
F9E0
E0C0
E000
E000
E000
E000
F0C0
7FE0
3FC0
1F80
ENDCHAR
STARTCHAR Dcaron
ENCODING 270
SWIDTH 653 0
DWIDTH 16 0
BBX 13 22 2 0
BITMAP
0100
1F80
1F00
0600
0000
FE00
FF80
FFC0
FFE0
E0F0
E070
E078
E038
E038
E038
E078
E078
E0F0
E7E0
FFE0
FF80
FE00
ENDCHAR
STARTCHAR dcaron
ENCODING 271
SWIDTH 740 0
DWIDTH 18 0
BBX 17 18 1 0
BITMAP
007000
007300
007380
007380
007100
1F7300
3FF000
7FF000
F9F000
E0F000
E07000
E07000
E07000
E07000
F0F000
7FF000
3FF000
1F9000
ENDCHAR
STARTCHAR Dcroat
ENCODING 272
SWIDTH 672 0
DWIDTH 16 0
BBX 15 17 0 0
BITMAP
3F80
3FF0
3FF8
3FFC
383C
381E
380E
FE0E
FE0E
FE0E
380E
381E
383E
38FC
3FF8
3FF0
3FC0
ENDCHAR
STARTCHAR dcroat
ENCODING 273
SWIDTH 606 0
DWIDTH 15 0
BBX 14 18 1 0
BITMAP
0070
00FC
00FC
00FC
0070
1F70
3FF0
7FF0
F9F0
E0F0
E070
E070
E070
E070
F0F0
7FF0
3FF0
1F90
ENDCHAR
STARTCHAR Emacron
ENCODING 274
SWIDTH 578 0
DWIDTH 14 0
BBX 11 20 2 0
BITMAP
1F80
1F80
0000
FFE0
FFE0
FFE0
FFE0
E000
E000
E000
FF00
FF00
FF00
E000
E000
E000
E000
FFE0
FFE0
FFE0
ENDCHAR
STARTCHAR emacron
ENCODING 275
SWIDTH 524 0
DWIDTH 13 0
BBX 11 16 1 0
BITMAP
1F80
1F80
0000
1F00
3FC0
7FE0
F9E0
E3C0
E780
EF00
EE00
FC00
FCC0
7FE0
3FC0
1F80
ENDCHAR
STARTCHAR Ebreve
ENCODING 276
SWIDTH 578 0
DWIDTH 14 0
BBX 11 21 2 0
BITMAP
1B00
1F00
0E00
0000
FFE0
FFE0
FFE0
FFE0
E000
E000
E000
FF00
FF00
FF00
E000
E000
E000
E000
FFE0
FFE0
FFE0
ENDCHAR
STARTCHAR ebreve
ENCODING 277
SWIDTH 524 0
DWIDTH 13 0
BBX 11 17 1 0
BITMAP
1B00
1F00
0E00
0000
1F00
3FC0
7FE0
F9E0
E3C0
E780
EF00
EE00
FC00
FCC0
7FE0
3FC0
1F80
ENDCHAR
STARTCHAR Edotaccent
ENCODING 278
SWIDTH 578 0
DWIDTH 14 0
BBX 11 21 2 0
BITMAP
0C00
0E00
0E00
0000
FFE0
FFE0
FFE0
FFE0
E000
E000
E000
FF00
FF00
FF00
E000
E000
E000
E000
FFE0
FFE0
FFE0
ENDCHAR
STARTCHAR edotaccent
ENCODING 279
SWIDTH 524 0
DWIDTH 13 0
BBX 11 17 1 0
BITMAP
0600
0E00
0600
0000
1F00
3FC0
7FE0
F9E0
E3C0
E780
EF00
EE00
FC00
FCC0
7FE0
3FC0
1F80
ENDCHAR
STARTCHAR Eogonek
ENCODING 280
SWIDTH 578 0
DWIDTH 14 0
BBX 11 21 2 -4
BITMAP
FFE0
FFE0
FFE0
FFE0
E000
E000
E000
FF00
FF00
FF00
E000
E000
E000
E000
FFE0
FFE0
FFE0
0180
0300
03E0
01E0
ENDCHAR
STARTCHAR eogonek
ENCODING 281
SWIDTH 524 0
DWIDTH 13 0
BBX 11 17 1 -4
BITMAP
1F00
3FC0
7FE0
F9E0
E3C0
E780
EF00
EE00
FC00
FCC0
7FE0
3FC0
1F80
0300
0700
07C0
03C0
ENDCHAR
STARTCHAR Ecaron
ENCODING 282
SWIDTH 578 0
DWIDTH 14 0
BBX 11 22 2 0
BITMAP
1100
3B00
1F00
0E00
0400
FFE0
FFE0
FFE0
FFE0
E000
E000
E000
FF00
FF00
FF00
E000
E000
E000
E000
FFE0
FFE0
FFE0
ENDCHAR
STARTCHAR ecaron
ENCODING 283
SWIDTH 524 0
DWIDTH 13 0
BBX 11 19 1 0
BITMAP
0100
1F80
1F00
0600
0000
0000
1F00
3FC0
7FE0
F9E0
E3C0
E780
EF00
EE00
FC00
FCC0
7FE0
3FC0
1F80
ENDCHAR
STARTCHAR Gcircumflex
ENCODING 284
SWIDTH 665 0
DWIDTH 16 0
BBX 14 22 1 0
BITMAP
0180
03C0
07E0
0240
0000
07E0
1FF8
3FFC
7F78
7800
F000
E000
E000
E000
E01C
E01C
F01C
781C
7C1C
3FFC
1FFC
07F0
ENDCHAR
STARTCHAR gcircumflex
ENCODING 285
SWIDTH 607 0
DWIDTH 15 0
BBX 12 23 1 -5
BITMAP
0600
1F00
1F80
0900
0000
1F00
3FD0
7FF0
F9F0
E0F0
E070
E070
E070
E070
F0F0
7FF0
7FF0
1FF0
00F0
01F0
0FE0
0FC0
0F00
ENDCHAR
STARTCHAR Gbreve
ENCODING 286
SWIDTH 665 0
DWIDTH 16 0
BBX 14 21 1 0
BITMAP
0760
03E0
03C0
0000
07E0
1FF8
3FFC
7F78
7800
F000
E000
E000
E000
E01C
E01C
F01C
781C
7C1C
3FFC
1FFC
07F0
ENDCHAR
STARTCHAR gbreve
ENCODING 287
SWIDTH 607 0
DWIDTH 15 0
BBX 12 22 1 -5
BITMAP
1B00
1F00
0F00
0000
1F00
3FD0
7FF0
F9F0
E0F0
E070
E070
E070
E070
F0F0
7FF0
7FF0
1FF0
00F0
01F0
0FE0
0FC0
0F00
ENDCHAR
STARTCHAR Gdotaccent
ENCODING 288
SWIDTH 665 0
DWIDTH 16 0
BBX 14 21 1 0
BITMAP
0180
0380
0180
0000
07E0
1FF8
3FFC
7F78
7800
F000
E000
E000
E000
E01C
E01C
F01C
781C
7C1C
3FFC
1FFC
07F0
ENDCHAR
STARTCHAR gdotaccent
ENCODING 289
SWIDTH 607 0
DWIDTH 15 0
BBX 12 22 1 -5
BITMAP
0600
0E00
0600
0000
1F00
3FD0
7FF0
F9F0
E0F0
E070
E070
E070
E070
F0F0
7FF0
7FF0
1FF0
00F0
01F0
0FE0
0FC0
0F00
ENDCHAR
STARTCHAR Gcommaaccent
ENCODING 290
SWIDTH 665 0
DWIDTH 16 0
BBX 14 23 1 -6
BITMAP
07E0
1FF8
3FFC
7F78
7800
F000
E000
E000
E000
E01C
E01C
F01C
781C
7C1C
3FFC
1FFC
07F0
0000
0180
03C0
0180
0080
0180
ENDCHAR
STARTCHAR gcommaaccent
ENCODING 291
SWIDTH 607 0
DWIDTH 15 0
BBX 12 24 1 -5
BITMAP
0400
0400
0E00
0E00
0E00
0000
1F00
3FD0
7FF0
F9F0
E0F0
E070
E070
E070
E070
F0F0
7FF0
7FF0
1FF0
00F0
01F0
0FE0
0FC0
0F00
ENDCHAR
STARTCHAR Hcircumflex
ENCODING 292
SWIDTH 689 0
DWIDTH 17 0
BBX 13 21 2 0
BITMAP
0700
0F80
1D80
0880
E038
E038
E038
E038
E038
E038
E038
FFF8
FFF8
FFF8
E038
E038
E038
E038
E038
E038
E038
ENDCHAR
STARTCHAR hcircumflex
ENCODING 293
SWIDTH 562 0
DWIDTH 13 0
BBX 11 18 1 0
BITMAP
E000
E300
E7C0
EFC0
E400
EE00
FF80
FFC0
FBE0
F0E0
E0E0
E0E0
E0E0
E0E0
E0E0
E0E0
E0E0
E0E0
ENDCHAR
STARTCHAR Hbar
ENCODING 294
SWIDTH 689 0
DWIDTH 17 0
BBX 16 17 0 0
BITMAP
380E
380E
FFFF
FFFF
FFFF
380E
380E
3FFE
3FFE
3FFE
380E
380E
380E
380E
380E
380E
380E
ENDCHAR
STARTCHAR hbar
ENCODING 295
SWIDTH 562 0
DWIDTH 13 0
BBX 12 18 0 0
BITMAP
7000
FC00
FC00
FC00
7000
7700
7FC0
7FE0
7DF0
7870
7070
7070
7070
7070
7070
7070
7070
7070
ENDCHAR
STARTCHAR Itilde
ENCODING 296
SWIDTH 270 0
DWIDTH 6 0
BBX 8 22 -1 0
BITMAP
01
7B
FF
EF
00
1C
1C
1C
1C
1C
1C
1C
1C
1C
1C
1C
1C
1C
1C
1C
1C
1C
ENDCHAR
STARTCHAR itilde
ENCODING 297
SWIDTH 235 0
DWIDTH 6 0
BBX 8 18 -1 0
BITMAP
20
F7
FF
CE
00
38
38
38
38
38
38
38
38
38
38
38
38
38
ENDCHAR
STARTCHAR Imacron
ENCODING 298
SWIDTH 270 0
DWIDTH 6 0
BBX 6 20 0 0
BITMAP
FC
FC
00
38
38
38
38
38
38
38
38
38
38
38
38
38
38
38
38
38
ENDCHAR
STARTCHAR imacron
ENCODING 299
SWIDTH 235 0
DWIDTH 6 0
BBX 6 16 0 0
BITMAP
FC
FC
00
70
70
70
70
70
70
70
70
70
70
70
70
70
ENDCHAR
STARTCHAR Ibreve
ENCODING 300
SWIDTH 270 0
DWIDTH 6 0
BBX 5 21 1 0
BITMAP
D8
F8
70
00
70
70
70
70
70
70
70
70
70
70
70
70
70
70
70
70
70
ENDCHAR
STARTCHAR ibreve
ENCODING 301
SWIDTH 235 0
DWIDTH 6 0
BBX 5 17 0 0
BITMAP
D8
F8
78
00
70
70
70
70
70
70
70
70
70
70
70
70
70
ENDCHAR
STARTCHAR Iogonek
ENCODING 302
SWIDTH 270 0
DWIDTH 6 0
BBX 4 21 1 -4
BITMAP
70
70
70
70
70
70
70
70
70
70
70
70
70
70
70
70
70
40
C0
F0
F0
ENDCHAR
STARTCHAR iogonek
ENCODING 303
SWIDTH 235 0
DWIDTH 6 0
BBX 4 22 1 -4
BITMAP
E0
F0
F0
E0
00
E0
E0
E0
E0
E0
E0
E0
E0
E0
E0
E0
E0
E0
C0
C0
F0
F0
ENDCHAR
STARTCHAR Idotaccent
ENCODING 304
SWIDTH 270 0
DWIDTH 6 0
BBX 3 21 2 0
BITMAP
C0
E0
C0
00
E0
E0
E0
E0
E0
E0
E0
E0
E0
E0
E0
E0
E0
E0
E0
E0
E0
ENDCHAR
STARTCHAR dotlessi
ENCODING 305
SWIDTH 235 0
DWIDTH 6 0
BBX 3 13 1 0
BITMAP
E0
E0
E0
E0
E0
E0
E0
E0
E0
E0
E0
E0
E0
ENDCHAR
STARTCHAR IJ
ENCODING 306
SWIDTH 687 0
DWIDTH 16 0
BBX 13 17 2 0
BITMAP
E038
E038
E038
E038
E038
E038
E038
E038
E038
E038
E038
E038
E078
E1F0
E7F0
E7E0
E780
ENDCHAR
STARTCHAR ij
ENCODING 307
SWIDTH 474 0
DWIDTH 11 0
BBX 10 23 1 -5
BITMAP
E380
F7C0
F7C0
E380
0000
E380
E380
E380
E380
E380
E380
E380
E380
E380
E380
E380
E380
E380
0780
1F00
7F00
7E00
7800
ENDCHAR
STARTCHAR Jcircumflex
ENCODING 308
SWIDTH 416 0
DWIDTH 10 0
BBX 10 22 0 0
BITMAP
0300
0780
0FC0
0480
0000
0780
0780
0780
0780
0780
0780
0780
0780
0780
0780
0780
0780
0F00
9F00
FE00
FC00
F000
ENDCHAR
STARTCHAR jcircumflex
ENCODING 309
SWIDTH 237 0
DWIDTH 6 0
BBX 10 22 -4 -5
BITMAP
0300
0F80
0FC0
0480
0780
0780
0780
0780
0780
0780
0780
0780
0780
0780
0780
0700
0700
0F00
1F00
FE00
FC00
F000
ENDCHAR
STARTCHAR Kcommaaccent
ENCODING 310
SWIDTH 625 0
DWIDTH 15 0
BBX 13 23 2 -6
BITMAP
E078
E0F0
E1E0
E1E0
E3C0
E780
EF00
EF00
FF00
FF80
FB80
FBC0
F1E0
E1E0
E0F0
E0F0
E078
0000
0400
0E00
0E00
0600
0400
ENDCHAR
STARTCHAR kcommaaccent
ENCODING 311
SWIDTH 539 0
DWIDTH 13 0
BBX 12 24 1 -6
BITMAP
E000
E000
E000
E000
E000
E0F0
E1E0
E1C0
E380
E780
EF00
FF00
FF80
FF80
FBC0
F1C0
E1E0
E0F0
0000
0C00
0E00
0E00
0600
0400
ENDCHAR
STARTCHAR kgreenlandic
ENCODING 312
SWIDTH 539 0
DWIDTH 13 0
BBX 12 13 1 0
BITMAP
E0F0
E1E0
E1C0
E380
E780
EF00
FF00
FF80
FF80
FBC0
F1C0
E1E0
E0F0
ENDCHAR
STARTCHAR Lacute
ENCODING 313
SWIDTH 562 0
DWIDTH 14 0
BBX 11 22 2 0
BITMAP
0200
0700
0F00
1E00
0800
E000
E000
E000
E000
E000
E000
E000
E000
E000
E000
E000
E000
E000
E000
FFE0
FFE0
FFE0
ENDCHAR
STARTCHAR lacute
ENCODING 314
SWIDTH 235 0
DWIDTH 6 0
BBX 7 24 1 0
BITMAP
08
1C
3E
78
30
00
E0
E0
E0
E0
E0
E0
E0
E0
E0
E0
E0
E0
E0
E0
E0
E0
E0
E0
ENDCHAR
STARTCHAR Lcommaaccent
ENCODING 315
SWIDTH 562 0
DWIDTH 14 0
BBX 11 23 2 -6
BITMAP
E000
E000
E000
E000
E000
E000
E000
E000
E000
E000
E000
E000
E000
E000
FFE0
FFE0
FFE0
0000
0C00
1C00
1C00
0C00
0C00
ENDCHAR
STARTCHAR lcommaaccent
ENCODING 316
SWIDTH 235 0
DWIDTH 6 0
BBX 3 24 1 -6
BITMAP
E0
E0
E0
E0
E0
E0
E0
E0
E0
E0
E0
E0
E0
E0
E0
E0
E0
E0
00
60
E0
E0
60
60
ENDCHAR
STARTCHAR Lcaron
ENCODING 317
SWIDTH 562 0
DWIDTH 14 0
BBX 11 17 2 0
BITMAP
E600
EF00
E700
E200
E600
E000
E000
E000
E000
E000
E000
E000
E000
E000
FFE0
FFE0
FFE0
ENDCHAR
STARTCHAR lcaron
ENCODING 318
SWIDTH 369 0
DWIDTH 9 0
BBX 8 18 1 0
BITMAP
E0
E6
E7
E7
E3
E6
E0
E0
E0
E0
E0
E0
E0
E0
E0
E0
E0
E0
ENDCHAR
STARTCHAR Ldot
ENCODING 319
SWIDTH 745 0
DWIDTH 18 0
BBX 15 17 2 0
BITMAP
E000
E000
E000
E000
E000
E000
E000
E01C
E01E
E01E
E008
E000
E000
E000
FFE0
FFE0
FFE0
ENDCHAR
STARTCHAR ldotaccent
ENCODING 320
SWIDTH 463 0
DWIDTH 11 0
BBX 9 18 1 0
BITMAP
E000
E000
E000
E000
E000
E000
E000
E000
E780
E780
E780
E300
E000
E000
E000
E000
E000
E000
ENDCHAR
STARTCHAR Lslash
ENCODING 321
SWIDTH 585 0
DWIDTH 14 0
BBX 14 17 0 0
BITMAP
3800
3800
3800
3800
3800
3A00
3E00
3E00
7E00
F800
F800
B800
3800
3800
3FFC
3FFC
3FFC
ENDCHAR
STARTCHAR lslash
ENCODING 322
SWIDTH 319 0
DWIDTH 8 0
BBX 7 18 0 0
BITMAP
38
38
38
38
38
38
3A
3E
3E
7E
F8
F8
B8
38
38
38
38
38
ENDCHAR
STARTCHAR Nacute
ENCODING 323
SWIDTH 689 0
DWIDTH 17 0
BBX 13 22 2 0
BITMAP
0080
0180
03C0
0780
0200
E038
F038
F838
F838
FC38
FC38
FE38
EE38
EF38
E7B8
E3B8
E3F8
E1F8
E1F8
E0F8
E078
E078
ENDCHAR
STARTCHAR nacute
ENCODING 324
SWIDTH 562 0
DWIDTH 13 0
BBX 11 19 1 0
BITMAP
0080
0180
03C0
0780
0200
0000
8E00
FF80
FFC0
FBE0
F0E0
E0E0
E0E0
E0E0
E0E0
E0E0
E0E0
E0E0
E0E0
ENDCHAR
STARTCHAR Ncommaaccent
ENCODING 325
SWIDTH 689 0
DWIDTH 17 0
BBX 13 23 2 -6
BITMAP
E038
F038
F838
F838
FC38
FC38
FE38
EE38
EF38
E7B8
E3B8
E3F8
E1F8
E1F8
E0F8
E078
E078
0000
0600
0700
0700
0300
0600
ENDCHAR
STARTCHAR ncommaaccent
ENCODING 326
SWIDTH 562 0
DWIDTH 13 0
BBX 11 19 1 -6
BITMAP
8E00
FF80
FFC0
FBE0
F0E0
E0E0
E0E0
E0E0
E0E0
E0E0
E0E0
E0E0
E0E0
0000
0600
0E00
0E00
0600
0600
ENDCHAR
STARTCHAR Ncaron
ENCODING 327
SWIDTH 689 0
DWIDTH 17 0
BBX 13 22 2 0
BITMAP
0800
1D80
0F80
0700
0200
E038
F038
F838
F838
FC38
FC38
FE38
EE38
EF38
E7B8
E3B8
E3F8
E1F8
E1F8
E0F8
E078
E078
ENDCHAR
STARTCHAR ncaron
ENCODING 328
SWIDTH 562 0
DWIDTH 13 0
BBX 11 18 1 0
BITMAP
1100
1B80
1F00
0E00
0000
8E00
FF80
FFC0
FBE0
F0E0
E0E0
E0E0
E0E0
E0E0
E0E0
E0E0
E0E0
E0E0
ENDCHAR
STARTCHAR napostrophe
ENCODING 329
SWIDTH 694 0
DWIDTH 17 0
BBX 16 17 0 0
BITMAP
6000
E000
E000
6000
48F0
0FFC
0FFE
0FFE
0F0E
0F0F
0F0F
0F0F
0F0F
0F0F
0F0F
0F0F
0F0F
ENDCHAR
STARTCHAR Eng
ENCODING 330
SWIDTH 689 0
DWIDTH 17 0
BBX 13 22 2 -5
BITMAP
E038
F038
F838
F838
FC38
FC38
FE38
EE38
EF38
E7B8
E3B8
E3F8
E1F8
E1F8
E0F8
E0F8
E078
0078
07F0
07E0
07C0
0700
ENDCHAR
STARTCHAR eng
ENCODING 331
SWIDTH 562 0
DWIDTH 13 0
BBX 11 18 1 -5
BITMAP
8E00
FF80
FFC0
FBE0
F0E0
E0E0
E0E0
E0E0
E0E0
E0E0
E0E0
E0E0
E0E0
01E0
03E0
1FC0
1F80
1E00
ENDCHAR
STARTCHAR Omacron
ENCODING 332
SWIDTH 777 0
DWIDTH 19 0
BBX 17 20 1 0
BITMAP
07E000
07E000
000000
07E000
1FF800
3FFC00
7F7E00
780F00
F00700
E00780
E00380
E00380
E00380
E00780
F00780
780F00
7C1F00
3FFE00
1FFC00
07F000
ENDCHAR
STARTCHAR omacron
ENCODING 333
SWIDTH 579 0
DWIDTH 14 0
BBX 12 16 1 0
BITMAP
1F80
1F80
0000
1F80
3FC0
7FE0
F9F0
E0F0
E070
E070
E070
E070
F0F0
7FE0
3FC0
1F80
ENDCHAR
STARTCHAR Obreve
ENCODING 334
SWIDTH 777 0
DWIDTH 19 0
BBX 17 21 1 0
BITMAP
036000
03E000
01C000
000000
07E000
1FF800
3FFC00
7F7E00
780F00
F00700
E00780
E00380
E00380
E00380
E00780
F00780
780F00
7C1F00
3FFE00
1FFC00
07F000
ENDCHAR
STARTCHAR obreve
ENCODING 335
SWIDTH 579 0
DWIDTH 14 0
BBX 12 17 1 0
BITMAP
1980
0F80
0F00
0000
1F80
3FC0
7FE0
F9F0
E0F0
E070
E070
E070
E070
F0F0
7FE0
3FC0
1F80
ENDCHAR
STARTCHAR Ohungarumlaut
ENCODING 336
SWIDTH 777 0
DWIDTH 19 0
BBX 17 24 1 0
BITMAP
010000
019800
03FC00
073800
027000
002000
000000
07E000
1FF800
3FFC00
7F7E00
780F00
F00700
E00780
E00380
E00380
E00380
E00780
F00780
780F00
7C1F00
3FFE00
1FFC00
07F000
ENDCHAR
STARTCHAR ohungarumlaut
ENCODING 337
SWIDTH 579 0
DWIDTH 14 0
BBX 12 19 1 0
BITMAP
0400
0E40
0EF0
1DE0
19C0
0080
1F80
3FC0
7FE0
F9F0
E0F0
E070
E070
E070
E070
F0F0
7FE0
3FC0
1F80
ENDCHAR
STARTCHAR OE
ENCODING 338
SWIDTH 1125 0
DWIDTH 27 0
BBX 25 17 1 0
BITMAP
07E3FF80
1FFBFF80
3FFFFF80
7F7FFF80
780F8000
F0078000
E0078000
E003FE00
E003FE00
E003FE00
E0078000
F0078000
780F8000
7C1F8000
3FFFFF80
1FFFFF80
07F3FF80
ENDCHAR
STARTCHAR oe
ENCODING 339
SWIDTH 924 0
DWIDTH 22 0
BBX 21 13 1 0
BITMAP
1F87C0
3FDFF0
7FFFF8
F9FCF0
E0F8E0
E079E0
E073C0
E07780
E07F20
F0FE70
7FFFF8
3FDFF0
1F87E0
ENDCHAR
STARTCHAR Racute
ENCODING 340
SWIDTH 651 0
DWIDTH 16 0
BBX 13 23 2 0
BITMAP
0100
0380
07C0
0F00
0600
0000
FF00
FFC0
FFE0
FFF0
E078
E078
E038
E038
E078
E0F0
FFF0
FFE0
FFC0
FFC0
E1E0
E0E0
E0F0
ENDCHAR
STARTCHAR racute
ENCODING 341
SWIDTH 414 0
DWIDTH 10 0
BBX 9 19 1 0
BITMAP
0200
0600
0F00
1E00
0800
0000
8380
DF80
FF80
FF80
F000
F000
E000
E000
E000
E000
E000
E000
E000
ENDCHAR
STARTCHAR Rcommaaccent
ENCODING 342
SWIDTH 651 0
DWIDTH 16 0
BBX 13 23 2 -6
BITMAP
FF00
FFC0
FFE0
FFF0
E078
E078
E038
E038
E078
E0F0
FFF0
FFE0
FFC0
FFC0
E1E0
E0E0
E0F0
0000
0600
0E00
0E00
0600
0600
ENDCHAR
STARTCHAR rcommaaccent
ENCODING 343
SWIDTH 414 0
DWIDTH 10 0
BBX 9 19 1 -6
BITMAP
8380
DF80
FF80
FF80
F000
F000
E000
E000
E000
E000
E000
E000
E000
0000
6000
E000
E000
6000
6000
ENDCHAR
STARTCHAR Rcaron
ENCODING 344
SWIDTH 651 0
DWIDTH 16 0
BBX 13 22 2 0
BITMAP
0100
1F80
1F00
0600
0000
FF00
FFC0
FFE0
FFF0
E078
E078
E038
E038
E078
E0F0
FFF0
FFE0
FFC0
FFC0
E1E0
E0E0
E0F0
ENDCHAR
STARTCHAR rcaron
ENCODING 345
SWIDTH 414 0
DWIDTH 10 0
BBX 9 18 1 0
BITMAP
2400
7E00
3C00
1800
0000
8380
DF80
FF80
FF80
F000
F000
E000
E000
E000
E000
E000
E000
E000
ENDCHAR
STARTCHAR Sacute
ENCODING 346
SWIDTH 610 0
DWIDTH 15 0
BBX 13 23 1 0
BITMAP
0080
01C0
03E0
0780
0300
0000
1FF0
7FF0
FFF0
FFF0
E000
E000
F000
FFC0
7FF0
3FF0
0078
0038
0038
0078
7FF0
7FF0
7FC0
ENDCHAR
STARTCHAR sacute
ENCODING 347
SWIDTH 523 0
DWIDTH 13 0
BBX 11 18 1 0
BITMAP
0380
07C0
0F00
0600
0000
0FC0
7FC0
FFC0
FFC0
E000
FF00
FFC0
7FE0
01E0
00E0
FFE0
FFC0
FF80
ENDCHAR
STARTCHAR Scircumflex
ENCODING 348
SWIDTH 610 0
DWIDTH 15 0
BBX 13 23 1 0
BITMAP
0200
0700
0F80
1D80
0880
0000
1FF0
7FF0
FFF0
FFF0
E000
E000
F000
FFC0
7FF0
3FF0
0078
0038
0038
0078
7FF0
7FF0
7FC0
ENDCHAR
STARTCHAR scircumflex
ENCODING 349
SWIDTH 523 0
DWIDTH 13 0
BBX 11 17 1 0
BITMAP
0E00
1F00
3B00
1100
0FC0
7FC0
FFC0
FFC0
E000
FF00
FFC0
7FE0
01E0
00E0
FFE0
FFC0
FF80
ENDCHAR
STARTCHAR Scedilla
ENCODING 350
SWIDTH 610 0
DWIDTH 15 0
BBX 13 22 1 -5
BITMAP
1FF0
7FF0
FFF0
FFF0
E000
E000
F000
FFC0
7FF0
3FF0
0078
0038
0038
0078
7FF0
7FF0
7FC0
0200
0700
0380
0F80
0F00
ENDCHAR
STARTCHAR scedilla
ENCODING 351
SWIDTH 523 0
DWIDTH 13 0
BBX 11 18 1 -5
BITMAP
0FC0
7FC0
FFC0
FFC0
E000
FF00
FFC0
7FE0
01E0
00E0
FFE0
FFC0
FF80
0400
0E00
0700
1F00
1E00
ENDCHAR
STARTCHAR Scaron
ENCODING 352
SWIDTH 610 0
DWIDTH 15 0
BBX 13 23 1 0
BITMAP
0800
1D80
0F80
0700
0200
0000
1FF0
7FF0
FFF0
FFF0
E000
E000
F000
FFC0
7FF0
3FF0
0078
0038
0038
0078
7FF0
7FF0
7FC0
ENDCHAR
STARTCHAR scaron
ENCODING 353
SWIDTH 523 0
DWIDTH 13 0
BBX 11 18 1 0
BITMAP
1100
1B80
1F00
0E00
0400
0FC0
7FC0
FFC0
FFC0
E000
FF00
FFC0
7FE0
01E0
00E0
FFE0
FFC0
FF80
ENDCHAR
STARTCHAR Tcommaaccent
ENCODING 354
SWIDTH 578 0
DWIDTH 14 0
BBX 14 23 0 -6
BITMAP
FFFC
FFFC
FFFC
FFFC
0780
0780
0780
0780
0780
0780
0780
0780
0780
0780
0780
0780
0780
0000
0300
0780
0300
0100
0300
ENDCHAR
STARTCHAR tcommaaccent
ENCODING 355
SWIDTH 437 0
DWIDTH 11 0
BBX 10 24 0 -6
BITMAP
3800
3800
3800
3800
3800
FFC0
FFC0
FFC0
FFC0
3800
3800
3800
3800
3800
3C00
1FC0
0FC0
07C0
0000
0C00
0E00
0E00
0600
0C00
ENDCHAR
STARTCHAR Tcaron
ENCODING 356
SWIDTH 578 0
DWIDTH 14 0
BBX 14 22 0 0
BITMAP
0480
0FC0
0780
0300
0000
FFFC
FFFC
FFFC
FFFC
0780
0780
0780
0780
0780
0780
0780
0780
0780
0780
0780
0780
0780
ENDCHAR
STARTCHAR tcaron
ENCODING 357
SWIDTH 570 0
DWIDTH 14 0
BBX 14 18 0 0
BITMAP
3800
3818
381C
381C
3808
FFD8
FFC0
FFC0
FFC0
3800
3800
3800
3800
3800
3C00
1FC0
0FC0
07C0
ENDCHAR
STARTCHAR Tbar
ENCODING 358
SWIDTH 578 0
DWIDTH 14 0
BBX 14 17 0 0
BITMAP
FFFC
FFFC
FFFC
FFFC
0780
0780
0780
0780
1FE0
1FE0
1FE0
0780
0780
0780
0780
0780
0780
ENDCHAR
STARTCHAR tbar
ENCODING 359
SWIDTH 437 0
DWIDTH 11 0
BBX 10 18 0 0
BITMAP
3800
3800
3800
3800
3800
FFC0
FFC0
FFC0
FFC0
3800
FF00
FF00
FF00
3800
3C00
1FC0
0FC0
07C0
ENDCHAR
STARTCHAR Utilde
ENCODING 360
SWIDTH 673 0
DWIDTH 16 0
BBX 14 22 1 0
BITMAP
0420
1F60
1FE0
1DC0
0000
F03C
F03C
F03C
F03C
F03C
F03C
F03C
F03C
F03C
F03C
F03C
F03C
7838
7CF8
3FF0
1FE0
07C0
ENDCHAR
STARTCHAR utilde
ENCODING 361
SWIDTH 562 0
DWIDTH 13 0
BBX 11 17 1 0
BITMAP
3DC0
3FC0
3380
0000
E0E0
E0E0
E0E0
E0E0
E0E0
E0E0
E0E0
E0E0
E0E0
F1E0
7FE0
3FE0
1F20
ENDCHAR
STARTCHAR Umacron
ENCODING 362
SWIDTH 673 0
DWIDTH 16 0
BBX 14 20 1 0
BITMAP
0FC0
0FC0
0000
F03C
F03C
F03C
F03C
F03C
F03C
F03C
F03C
F03C
F03C
F03C
F03C
7838
7CF8
3FF0
1FE0
07C0
ENDCHAR
STARTCHAR umacron
ENCODING 363
SWIDTH 562 0
DWIDTH 13 0
BBX 11 16 1 0
BITMAP
1F80
1F80
0000
E0E0
E0E0
E0E0
E0E0
E0E0
E0E0
E0E0
E0E0
E0E0
F1E0
7FE0
3FE0
1F20
ENDCHAR
STARTCHAR Ubreve
ENCODING 364
SWIDTH 673 0
DWIDTH 16 0
BBX 14 21 1 0
BITMAP
0EC0
07C0
0780
0000
F03C
F03C
F03C
F03C
F03C
F03C
F03C
F03C
F03C
F03C
F03C
F03C
7838
7CF8
3FF0
1FE0
07C0
ENDCHAR
STARTCHAR ubreve
ENCODING 365
SWIDTH 562 0
DWIDTH 13 0
BBX 11 16 1 0
BITMAP
1B00
1F00
0F00
E0E0
E0E0
E0E0
E0E0
E0E0
E0E0
E0E0
E0E0
E0E0
F1E0
7FE0
3FE0
1F20
ENDCHAR
STARTCHAR Uring
ENCODING 366
SWIDTH 673 0
DWIDTH 16 0
BBX 14 22 1 0
BITMAP
0300
0780
0480
0780
0300
F03C
F03C
F03C
F03C
F03C
F03C
F03C
F03C
F03C
F03C
F03C
F03C
7838
7CF8
3FF0
1FE0
07C0
ENDCHAR
STARTCHAR uring
ENCODING 367
SWIDTH 562 0
DWIDTH 13 0
BBX 11 18 1 0
BITMAP
0E00
0F00
1B00
0F00
0600
E0E0
E0E0
E0E0
E0E0
E0E0
E0E0
E0E0
E0E0
E0E0
F1E0
7FE0
3FE0
1F20
ENDCHAR
STARTCHAR Uhungarumlaut
ENCODING 368
SWIDTH 673 0
DWIDTH 16 0
BBX 14 23 1 0
BITMAP
0200
0730
0778
0EF0
0CE0
0040
F03C
F03C
F03C
F03C
F03C
F03C
F03C
F03C
F03C
F03C
F03C
F03C
7838
7CF8
3FF0
1FE0
07C0
ENDCHAR
STARTCHAR uhungarumlaut
ENCODING 369
SWIDTH 562 0
DWIDTH 13 0
BBX 11 19 1 0
BITMAP
0400
0EC0
1EE0
1DE0
1980
0000
E0E0
E0E0
E0E0
E0E0
E0E0
E0E0
E0E0
E0E0
E0E0
F1E0
7FE0
3FE0
1F20
ENDCHAR
STARTCHAR Uogonek
ENCODING 370
SWIDTH 673 0
DWIDTH 16 0
BBX 14 21 1 -4
BITMAP
F03C
F03C
F03C
F03C
F03C
F03C
F03C
F03C
F03C
F03C
F03C
F03C
7838
7CF8
3FF0
1FE0
07C0
0600
0600
0F80
0780
ENDCHAR
STARTCHAR uogonek
ENCODING 371
SWIDTH 562 0
DWIDTH 13 0
BBX 13 17 1 -4
BITMAP
E0E0
E0E0
E0E0
E0E0
E0E0
E0E0
E0E0
E0E0
E0E0
F1E0
7FE0
3FE0
1F20
0060
00C0
00F8
0078
ENDCHAR
STARTCHAR Wcircumflex
ENCODING 372
SWIDTH 819 0
DWIDTH 20 0
BBX 17 22 1 0
BITMAP
00C000
03E000
03F000
012000
000000
F1E380
F1E380
F1E380
F1E380
F1E380
F1E380
F1E380
F1E380
F1E380
F1E380
F1E380
F1E380
F1E380
71E780
7FFF80
3FFF00
1F3E00
ENDCHAR
STARTCHAR wcircumflex
ENCODING 373
SWIDTH 756 0
DWIDTH 18 0
BBX 16 17 1 0
BITMAP
0180
03C0
07E0
0240
E3C7
E3C7
E3C7
E3C7
E3C7
E3C7
E3C7
E3C7
E3C7
F3CF
7FFF
7FFE
3E7C
ENDCHAR
STARTCHAR Ycircumflex
ENCODING 374
SWIDTH 620 0
DWIDTH 15 0
BBX 13 22 1 0
BITMAP
0200
0700
0F80
1D80
0880
E038
E038
E038
E038
E038
E038
E038
F078
7DF0
7FF0
3FE0
0F80
0700
0700
0700
0700
0700
ENDCHAR
STARTCHAR ycircumflex
ENCODING 375
SWIDTH 562 0
DWIDTH 14 0
BBX 11 23 1 -5
BITMAP
0400
0E00
1F00
1B80
0100
E0E0
E0E0
E0E0
E0E0
E0E0
E0E0
E0E0
E0E0
E0E0
F1E0
7FE0
3FE0
1FE0
01E0
03C0
1FC0
1F80
1E00
ENDCHAR
STARTCHAR Ydieresis
ENCODING 376
SWIDTH 620 0
DWIDTH 15 0
BBX 13 21 1 0
BITMAP
0880
1DC0
1DC0
0000
E038
E038
E038
E038
E038
E038
E038
F078
7DF0
7FF0
3FE0
0F80
0700
0700
0700
0700
0700
ENDCHAR
STARTCHAR Zacute
ENCODING 377
SWIDTH 586 0
DWIDTH 14 0
BBX 13 23 1 0
BITMAP
0080
01C0
03C0
0780
0300
0000
FFF0
FFF0
FFE0
FFE0
03C0
03C0
0780
0780
0F00
0F00
1E00
3E00
3C00
7800
7FF8
FFF8
FFF8
ENDCHAR
STARTCHAR zacute
ENCODING 378
SWIDTH 481 0
DWIDTH 12 0
BBX 10 19 1 0
BITMAP
0100
0300
0780
0F00
0400
0000
FFC0
FF80
FF80
FF00
0F00
0E00
1E00
1C00
3800
3800
7FC0
FFC0
FFC0
ENDCHAR
STARTCHAR Zdotaccent
ENCODING 379
SWIDTH 586 0
DWIDTH 14 0
BBX 13 21 1 0
BITMAP
0600
0700
0600
0000
FFF0
FFF0
FFE0
FFE0
03C0
03C0
0780
0780
0F00
0F00
1E00
3E00
3C00
7800
7FF8
FFF8
FFF8
ENDCHAR
STARTCHAR zdotaccent
ENCODING 380
SWIDTH 481 0
DWIDTH 12 0
BBX 10 17 1 0
BITMAP
0C00
1C00
0C00
0000
FFC0
FF80
FF80
FF00
0F00
0E00
1E00
1C00
3800
3800
7FC0
FFC0
FFC0
ENDCHAR
STARTCHAR Zcaron
ENCODING 381
SWIDTH 586 0
DWIDTH 14 0
BBX 13 22 1 0
BITMAP
0900
1F80
0F00
0600
0000
FFF0
FFF0
FFE0
FFE0
03C0
03C0
0780
0780
0F00
0F00
1E00
3E00
3C00
7800
7FF8
FFF8
FFF8
ENDCHAR
STARTCHAR zcaron
ENCODING 382
SWIDTH 481 0
DWIDTH 12 0
BBX 10 18 1 0
BITMAP
0200
3700
3E00
0C00
0000
FFC0
FF80
FF80
FF00
0F00
0E00
1E00
1C00
3800
3800
7FC0
FFC0
FFC0
ENDCHAR
STARTCHAR AEacute
ENCODING 508
SWIDTH 988 0
DWIDTH 24 0
BBX 22 23 1 0
BITMAP
000200
000600
000F00
001E00
000800
000000
07FFFC
1FFFFC
3FFFFC
7FFFFC
783C00
703C00
F03C00
F03FE0
F03FE0
F03FE0
FFFC00
FFFC00
FFFC00
FFFC00
F03FFC
F03FFC
F03FFC
ENDCHAR
STARTCHAR aeacute
ENCODING 509
SWIDTH 976 0
DWIDTH 23 0
BBX 22 18 1 0
BITMAP
000E00
001F00
003C00
001800
000000
1F03E0
3FD7F8
7FFFFC
F9FE38
E0FC78
E07CF0
E07DE0
E07DC0
E07F90
F0FF18
7FFFFC
7FDFF8
1F93F0
ENDCHAR
STARTCHAR Oslashacute
ENCODING 510
SWIDTH 777 0
DWIDTH 19 0
BBX 17 23 1 0
BITMAP
002000
007000
00F000
01E000
00C000
000000
07E700
1FFE00
3FFC00
7F3E00
783F00
F07700
E0E780
E0E380
E1C380
E38380
E78780
F70780
7E0F00
7C1F00
3FFE00
3FFC00
77F000
ENDCHAR
STARTCHAR oslashacute
ENCODING 511
SWIDTH 579 0
DWIDTH 14 0
BBX 12 19 1 0
BITMAP
0080
0180
03C0
0780
0200
0000
1FF0
3FE0
7FE0
F9F0
E3F0
E770
EF70
EE70
FC70
F8F0
7FE0
7FC0
FF80
ENDCHAR
STARTCHAR dotlessj
ENCODING 567
SWIDTH 237 0
DWIDTH 6 0
BBX 9 18 -4 -5
BITMAP
0780
0780
0780
0780
0780
0780
0780
0780
0780
0780
0780
0700
0700
0F00
1F00
FE00
FC00
F000
ENDCHAR
STARTCHAR circumflex
ENCODING 710
SWIDTH 267 0
DWIDTH 6 0
BBX 6 4 0 12
BITMAP
30
7C
EC
40
ENDCHAR
STARTCHAR caron
ENCODING 711
SWIDTH 267 0
DWIDTH 6 0
BBX 6 5 0 12
BITMAP
40
FC
7C
38
10
ENDCHAR
STARTCHAR breve
ENCODING 728
SWIDTH 220 0
DWIDTH 5 0
BBX 5 3 0 13
BITMAP
D8
F8
78
ENDCHAR
STARTCHAR dotaccent
ENCODING 729
SWIDTH 125 0
DWIDTH 3 0
BBX 3 3 0 13
BITMAP
40
E0
E0
ENDCHAR
STARTCHAR ring
ENCODING 730
SWIDTH 192 0
DWIDTH 5 0
BBX 5 5 0 12
BITMAP
70
F0
D8
F0
20
ENDCHAR
STARTCHAR ogonek
ENCODING 731
SWIDTH 212 0
DWIDTH 5 0
BBX 5 5 0 -4
BITMAP
30
60
C0
F8
78
ENDCHAR
STARTCHAR tilde
ENCODING 732
SWIDTH 321 0
DWIDTH 8 0
BBX 8 4 0 13
BITMAP
20
F7
FF
CE
ENDCHAR
STARTCHAR hungarumlaut
ENCODING 733
SWIDTH 384 0
DWIDTH 9 0
BBX 9 6 0 12
BITMAP
2000
3B00
7F80
F700
4E00
0400
ENDCHAR
STARTCHAR uni0312
ENCODING 786
SWIDTH 192 0
DWIDTH 5 0
BBX 3 5 1 13
BITMAP
40
C0
C0
E0
E0
ENDCHAR
STARTCHAR uni0315
ENCODING 789
SWIDTH 132 0
DWIDTH 3 0
BBX 3 5 0 12
BITMAP
60
E0
E0
60
40
ENDCHAR
STARTCHAR uni0326
ENCODING 806
SWIDTH 193 0
DWIDTH 5 0
BBX 3 5 1 -6
BITMAP
C0
E0
E0
60
40
ENDCHAR
STARTCHAR pi
ENCODING 960
SWIDTH 555 0
DWIDTH 13 0
BBX 13 13 0 0
BITMAP
FFF8
FFF8
FFF8
FFF8
3CE0
3CE0
3CE0
3CE0
3CE0
3CE0
3CE0
3CE0
3CE0
ENDCHAR
STARTCHAR Wgrave
ENCODING 7808
SWIDTH 819 0
DWIDTH 20 0
BBX 17 23 1 0
BITMAP
020000
070000
0F8000
03C000
018000
000000
F1E380
F1E380
F1E380
F1E380
F1E380
F1E380
F1E380
F1E380
F1E380
F1E380
F1E380
F1E380
F1E380
71E780
7FFF80
3FFF00
1F3E00
ENDCHAR
STARTCHAR wgrave
ENCODING 7809
SWIDTH 756 0
DWIDTH 18 0
BBX 16 19 1 0
BITMAP
0400
0E00
1F00
0780
0300
0000
E3C7
E3C7
E3C7
E3C7
E3C7
E3C7
E3C7
E3C7
E3C7
F3CF
7FFF
7FFE
3E7C
ENDCHAR
STARTCHAR Wacute
ENCODING 7810
SWIDTH 819 0
DWIDTH 20 0
BBX 17 23 1 0
BITMAP
001000
003000
007800
00F000
004000
000000
F1E380
F1E380
F1E380
F1E380
F1E380
F1E380
F1E380
F1E380
F1E380
F1E380
F1E380
F1E380
F1E380
71E780
7FFF80
3FFF00
1F3E00
ENDCHAR
STARTCHAR wacute
ENCODING 7811
SWIDTH 756 0
DWIDTH 18 0
BBX 16 19 1 0
BITMAP
0020
0070
00F8
01E0
00C0
0000
E3C7
E3C7
E3C7
E3C7
E3C7
E3C7
E3C7
E3C7
E3C7
F3CF
7FFF
7FFE
3E7C
ENDCHAR
STARTCHAR Wdieresis
ENCODING 7812
SWIDTH 819 0
DWIDTH 20 0
BBX 17 21 1 0
BITMAP
023000
073000
073000
000000
F1E380
F1E380
F1E380
F1E380
F1E380
F1E380
F1E380
F1E380
F1E380
F1E380
F1E380
F1E380
F1E380
71E780
7FFF80
3FFF00
1F3E00
ENDCHAR
STARTCHAR wdieresis
ENCODING 7813
SWIDTH 756 0
DWIDTH 18 0
BBX 16 17 1 0
BITMAP
0620
0E70
0670
0000
E3C7
E3C7
E3C7
E3C7
E3C7
E3C7
E3C7
E3C7
E3C7
F3CF
7FFF
7FFE
3E7C
ENDCHAR
STARTCHAR Ygrave
ENCODING 7922
SWIDTH 620 0
DWIDTH 15 0
BBX 13 23 1 0
BITMAP
1000
3800
3C00
1E00
0C00
0000
E038
E038
E038
E038
E038
E038
E038
F078
7DF0
7FF0
3FE0
0F80
0700
0700
0700
0700
0700
ENDCHAR
STARTCHAR ygrave
ENCODING 7923
SWIDTH 562 0
DWIDTH 14 0
BBX 11 24 1 -5
BITMAP
2000
3000
7800
3C00
0800
0000
E0E0
E0E0
E0E0
E0E0
E0E0
E0E0
E0E0
E0E0
E0E0
F1E0
7FE0
3FE0
1FE0
01E0
03C0
1FC0
1F80
1E00
ENDCHAR
STARTCHAR endash
ENCODING 8211
SWIDTH 418 0
DWIDTH 10 0
BBX 8 3 1 7
BITMAP
FF
FF
FF
ENDCHAR
STARTCHAR emdash
ENCODING 8212
SWIDTH 719 0
DWIDTH 17 0
BBX 15 3 1 7
BITMAP
FFFE
FFFE
FFFE
ENDCHAR
STARTCHAR quoteleft
ENCODING 8216
SWIDTH 246 0
DWIDTH 6 0
BBX 4 6 1 11
BITMAP
40
60
C0
F0
F0
F0
ENDCHAR
STARTCHAR quoteright
ENCODING 8217
SWIDTH 245 0
DWIDTH 6 0
BBX 4 6 1 11
BITMAP
60
F0
F0
F0
60
60
ENDCHAR
STARTCHAR quotesinglbase
ENCODING 8218
SWIDTH 264 0
DWIDTH 6 0
BBX 4 6 1 -3
BITMAP
70
F0
F0
70
30
20
ENDCHAR
STARTCHAR quotedblleft
ENCODING 8220
SWIDTH 445 0
DWIDTH 11 0
BBX 9 6 1 11
BITMAP
4200
6300
C600
F780
F780
F780
ENDCHAR
STARTCHAR quotedblright
ENCODING 8221
SWIDTH 444 0
DWIDTH 11 0
BBX 9 6 1 11
BITMAP
6300
F780
F780
F780
6300
6300
ENDCHAR
STARTCHAR quotedblbase
ENCODING 8222
SWIDTH 463 0
DWIDTH 11 0
BBX 9 6 1 -3
BITMAP
7700
F780
F780
7380
3300
2300
ENDCHAR
STARTCHAR dagger
ENCODING 8224
SWIDTH 434 0
DWIDTH 10 0
BBX 9 21 1 -2
BITMAP
1C00
1C00
1C00
1C00
FF80
FF80
FF80
1C00
1C00
1C00
1C00
1C00
1C00
1C00
1C00
1C00
1C00
1C00
1C00
1C00
1C00
ENDCHAR
STARTCHAR daggerdbl
ENCODING 8225
SWIDTH 452 0
DWIDTH 11 0
BBX 9 21 1 -2
BITMAP
1C00
1C00
1C00
1C00
FF80
FF80
FF80
1C00
1C00
1C00
1C00
1C00
1C00
1C00
FF80
FF80
FF80
1C00
1C00
1C00
1C00
ENDCHAR
STARTCHAR bullet
ENCODING 8226
SWIDTH 354 0
DWIDTH 9 0
BBX 5 5 2 6
BITMAP
70
F8
F8
F0
60
ENDCHAR
STARTCHAR ellipsis
ENCODING 8230
SWIDTH 789 0
DWIDTH 19 0
BBX 17 4 1 -1
BITMAP
71C700
F3C780
F1C780
61C300
ENDCHAR
STARTCHAR perthousand
ENCODING 8240
SWIDTH 998 0
DWIDTH 24 0
BBX 22 17 1 0
BITMAP
781800
FC3800
EE7000
CE6000
CEE000
CEC000
FDC000
7D8000
038000
037878
07FCFC
0ECDCC
0CCFCC
1CCFCC
18CECC
38FCFC
307878
ENDCHAR
STARTCHAR guilsinglleft
ENCODING 8249
SWIDTH 403 0
DWIDTH 10 0
BBX 8 12 1 0
BITMAP
04
0E
1E
3C
78
F0
F0
78
3E
1F
0E
04
ENDCHAR
STARTCHAR guilsinglright
ENCODING 8250
SWIDTH 402 0
DWIDTH 10 0
BBX 8 11 1 1
BITMAP
60
F0
78
3C
1E
0F
1F
3E
78
F0
60
ENDCHAR
STARTCHAR fraction
ENCODING 8260
SWIDTH 477 0
DWIDTH 11 0
BBX 11 17 0 0
BITMAP
0060
00E0
00C0
01C0
0180
0380
0300
0700
0E00
0E00
1C00
1800
3800
3000
7000
6000
E000
ENDCHAR
STARTCHAR Euro
ENCODING 8364
SWIDTH 806 0
DWIDTH 19 0
BBX 17 17 1 0
BITMAP
007E00
01FF80
03FF80
07C700
0F0100
7FE000
7FE000
7FE000
1C0000
FFC000
FFC000
FFC000
0F0100
0F8300
07FF80
03FF80
00FE00
ENDCHAR
STARTCHAR trademark
ENCODING 8482
SWIDTH 606 0
DWIDTH 15 0
BBX 12 6 1 11
BITMAP
F9E0
22D0
22D0
22D0
22D0
22D0
ENDCHAR
STARTCHAR partialdiff
ENCODING 8706
SWIDTH 609 0
DWIDTH 15 0
BBX 13 18 1 0
BITMAP
0780
0780
03C0
01C0
01E0
0FE0
3FE0
7FF0
78F0
F070
E078
E078
E078
F070
F8F0
7FE0
3FE0
1F80
ENDCHAR
STARTCHAR product
ENCODING 8719
SWIDTH 632 0
DWIDTH 15 0
BBX 13 17 1 0
BITMAP
FFF8
FFF8
FFF8
FFF8
38E0
38E0
38E0
38E0
38E0
38E0
38E0
38E0
38E0
38E0
38E0
38E0
38E0
ENDCHAR
STARTCHAR minus
ENCODING 8722
SWIDTH 543 0
DWIDTH 13 0
BBX 9 3 2 7
BITMAP
FF80
FF80
FF80
ENDCHAR
STARTCHAR infinity
ENCODING 8734
SWIDTH 771 0
DWIDTH 19 0
BBX 17 10 1 3
BITMAP
3E7C00
7FFE00
7FFF00
F3C700
E1C700
E1C780
F1E700
7FFF00
7FFE00
3E7C00
ENDCHAR
STARTCHAR approxequal
ENCODING 8776
SWIDTH 476 0
DWIDTH 11 0
BBX 9 9 1 4
BITMAP
7B80
7F80
FF80
6700
0000
7B80
7F80
FF80
6700
ENDCHAR
STARTCHAR notequal
ENCODING 8800
SWIDTH 512 0
DWIDTH 12 0
BBX 10 15 1 1
BITMAP
0380
0380
0380
0700
FFC0
FFC0
FFC0
0E00
FFC0
FFC0
FFC0
FFC0
3800
7000
7000
ENDCHAR
STARTCHAR fi
ENCODING 64257
SWIDTH 650 0
DWIDTH 16 0
BBX 14 19 1 0
BITMAP
0380
1FB8
3FBC
3C3C
7838
7000
FFF8
FFF8
FFF8
FFF8
7038
7038
7038
7038
7038
7038
7038
7038
7038
ENDCHAR
STARTCHAR fl
ENCODING 64258
SWIDTH 631 0
DWIDTH 15 0
BBX 13 19 1 0
BITMAP
03F8
1FF8
3FF8
3C38
7838
7038
FF38
FF38
FF38
FF38
7038
7038
7038
7038
7038
7038
7038
7038
7038
ENDCHAR
STARTCHAR .notdef
ENCODING -1
SWIDTH 279 0
DWIDTH 7 0
BBX 1 1 0 0
BITMAP
00
ENDCHAR
STARTCHAR .null
ENCODING -1
SWIDTH 0 0
DWIDTH 0 0
BBX 1 1 0 0
BITMAP
00
ENDCHAR
STARTCHAR nonmarkingreturn
ENCODING -1
SWIDTH 279 0
DWIDTH 7 0
BBX 1 1 0 0
BITMAP
00
ENDCHAR
ENDFONT
